<?xml version="1.0" encoding="utf-8"?>
<!-- Generator: Adobe Illustrator 17.0.0, SVG Export Plug-In . SVG Version: 6.00 Build 0)  -->
<!DOCTYPE svg PUBLIC "-//W3C//DTD SVG 1.1//EN" "http://www.w3.org/Graphics/SVG/1.1/DTD/svg11.dtd">
<svg version="1.1" id="Layer_1" xmlns="http://www.w3.org/2000/svg" xmlns:xlink="http://www.w3.org/1999/xlink" x="0px" y="0px"
	 width="2721.271px" height="1428.143px" viewBox="0 0 2721.271 1428.143" enable-background="new 0 0 2721.271 1428.143"
	 xml:space="preserve">
<rect x="-9.311" y="-5.333" display="none" fill="#761113" stroke="#000000" stroke-miterlimit="10" width="2721.271" height="1428.143"/>
<path fill="#FFFFFF" d="M185.853,109.576l-1.775-1.775l8.225-8.225l-8.225-8.225l1.775-1.775l10,10L185.853,109.576z"/>
<path fill="#FFFFFF" d="M160.312,109.255l1.775-1.775l-8.225-8.225l8.225-8.225l-1.775-1.775l-10,10L160.312,109.255z"/>
<g display="none">
	
		<linearGradient id="SVGID_1_" gradientUnits="userSpaceOnUse" x1="-3692006144" y1="-14990.3125" x2="-2618264320" y2="-14990.3125" gradientTransform="matrix(1 0 0 1 7766.4795 15148.1621)">
		<stop  offset="0.2188" style="stop-color:#00D7FF"/>
		<stop  offset="0.9792" style="stop-color:#0096FF"/>
	</linearGradient>
	
		<rect x="211.811" y="142.35" display="inline" fill="#EAEAEA" fill-opacity="0.07" stroke="url(#SVGID_1_)" width="31" height="31"/>
	<path display="inline" fill="#FFFFFF" d="M224.371,164.806l-1.235-1.235l5.722-5.722l-5.722-5.722l1.235-1.235l6.957,6.957
		L224.371,164.806z"/>
</g>
<path fill="#FFFFFF" d="M231.948,106.521l-1.235-1.235l5.722-5.722l-5.722-5.722l1.235-1.235l6.957,6.957L231.948,106.521z"/>
<path fill="#FFFFFF" d="M287.589,104.51l-1.009-1.009l4.674-4.674l-4.674-4.674l1.009-1.009l5.683,5.683L287.589,104.51z"/>
<path fill="#FFFFFF" d="M293.589,104.51l-1.009-1.009l4.674-4.674l-4.674-4.674l1.009-1.009l5.683,5.683L293.589,104.51z"/>
<g display="none">
	
		<linearGradient id="SVGID_2_" gradientUnits="userSpaceOnUse" x1="-5423847424" y1="-14990.3125" x2="-4350105600" y2="-14990.3125" gradientTransform="matrix(1 0 0 1 7766.4795 15148.1621)">
		<stop  offset="0.2188" style="stop-color:#00D7FF"/>
		<stop  offset="0.9792" style="stop-color:#0096FF"/>
	</linearGradient>
	
		<rect x="161.811" y="142.35" display="inline" fill="#EAEAEA" fill-opacity="0.07" stroke="url(#SVGID_2_)" width="31" height="31"/>
	<path display="inline" fill="#FFFFFF" d="M180.092,164.806l1.235-1.235l-5.722-5.722l5.722-5.722l-1.235-1.235l-6.956,6.957
		L180.092,164.806z"/>
</g>
<path fill="#FFFFFF" d="M216.003,106.521l1.235-1.235l-5.722-5.722l5.722-5.722l-1.235-1.235l-6.956,6.957L216.003,106.521z"/>
<g>
	
		<linearGradient id="SVGID_3_" gradientUnits="userSpaceOnUse" x1="-4521.5571" y1="-12410.7744" x2="-4521.4004" y2="-12373.7744" gradientTransform="matrix(1 0 0 1 5044.8398 12337.6797)">
		<stop  offset="0.2188" style="stop-color:#00D7FF"/>
		<stop  offset="0.9792" style="stop-color:#0096FF"/>
	</linearGradient>
	<circle fill="url(#SVGID_3_)" fill-opacity="0.07" cx="523.361" cy="-54.595" r="18.5"/>
	
		<linearGradient id="SVGID_4_" gradientUnits="userSpaceOnUse" x1="-6618.8145" y1="18759.4141" x2="-6614.3496" y2="18759.4336" gradientTransform="matrix(1 0 0 -1 7142.4795 18702.1602)">
		<stop  offset="0.2188" style="stop-color:#00D7FF"/>
		<stop  offset="0.9792" style="stop-color:#0096FF"/>
	</linearGradient>
	<circle fill="url(#SVGID_4_)" cx="527.118" cy="-57.268" r="3.842"/>
	<g>
		<path fill="#FFFFFF" d="M525.278-57.268c0-1.017,0.825-1.841,1.842-1.841c1.017,0,1.841,0.824,1.841,1.841c0,0.013,0,0.027,0,0.04
			h-3.682C525.278-57.241,525.278-57.255,525.278-57.268z M521.278-57.228c0-0.013,0-0.026,0-0.04c0-0.688,0.119-1.348,0.337-1.96
			h-6.02c-0.552,0-1,0.448-1,1s0.448,1,1,1H521.278z M522.014-54.426c0.447,0.802,1.078,1.487,1.835,2h-8.255c-0.552,0-1-0.448-1-1
			s0.448-1,1-1H522.014z M515.594-49.624c-0.552,0-1,0.447-1,1s0.448,1,1,1h13.446c0.552,0,1-0.447,1-1s-0.448-1-1-1H515.594z"/>
	</g>
</g>
<g display="none">
	
		<linearGradient id="SVGID_5_" gradientUnits="userSpaceOnUse" x1="28442.5645" y1="53070.5195" x2="28479.5645" y2="53070.3633" gradientTransform="matrix(6.123234e-017 1 -1 6.123234e-017 53588.2461 -28375.6172)">
		<stop  offset="0.2188" style="stop-color:#00D7FF"/>
		<stop  offset="0.9792" style="stop-color:#0096FF"/>
	</linearGradient>
	<circle display="inline" fill="#EAEAEA" fill-opacity="0.07" stroke="url(#SVGID_5_)" cx="517.803" cy="85.447" r="18"/>
	
		<linearGradient id="SVGID_6_" gradientUnits="userSpaceOnUse" x1="-7249.6133" y1="-15062.7148" x2="-7248.4004" y2="-15062.7158" gradientTransform="matrix(1 0 0 1 7766.4795 15148.1621)">
		<stop  offset="0.2188" style="stop-color:#00D7FF"/>
		<stop  offset="0.9792" style="stop-color:#0096FF"/>
	</linearGradient>
	<path display="inline" fill="url(#SVGID_6_)" d="M517.803,78.143c0.277,0,0.542,0.11,0.738,0.306s0.306,0.461,0.306,0.738v9.391
		c0,0.277-0.11,0.542-0.306,0.738s-0.461,0.306-0.738,0.306c-0.276,0-0.542-0.11-0.738-0.306s-0.306-0.461-0.306-0.738v-9.391
		c0-0.277,0.11-0.542,0.306-0.738C517.261,78.253,517.526,78.143,517.803,78.143z M517.803,92.751c0.277,0,0.542-0.11,0.738-0.306
		s0.306-0.461,0.306-0.738s-0.11-0.542-0.306-0.738s-0.461-0.306-0.738-0.306c-0.276,0-0.542,0.11-0.738,0.306
		s-0.306,0.461-0.306,0.738s0.11,0.542,0.306,0.738C517.261,92.641,517.526,92.751,517.803,92.751z"/>
</g>
<g id="Layer_2">
</g>
<rect x="251.802" y="-88.096" fill="#FFFFFF" fill-opacity="0.6" stroke="#FFFFFF" stroke-width="2" stroke-miterlimit="10" width="54.742" height="45.333"/>
<line fill="none" stroke="#D4D3F0" stroke-width="2" x1="247.417" y1="99.505" x2="255.417" y2="99.505"/>
<path fill="#D4D3F0" d="M268.667,103.255v-3h-3v-2h3v-3h2v3h3v2h-3v3H268.667z"/>
<path fill="#FFFFFF" d="M324.12,104.993v0.877c0,0.465-0.185,0.912-0.514,1.241s-0.775,0.514-1.241,0.514h-12.283
	c-0.465,0-0.912-0.185-1.241-0.514s-0.514-0.775-0.514-1.241V93.587c0-0.465,0.185-0.912,0.514-1.241s0.775-0.514,1.241-0.514
	h12.283c0.465,0,0.912,0.185,1.241,0.514s0.514,0.775,0.514,1.241v0.877h-7.896c-0.465,0-0.912,0.185-1.241,0.514
	s-0.514,0.775-0.514,1.241v7.019c0,0.465,0.185,0.912,0.514,1.241s0.775,0.514,1.241,0.514 M316.224,103.239h8.774V96.22h-8.774
	 M319.733,101.045c-0.349,0-0.684-0.139-0.931-0.385c-0.247-0.247-0.385-0.582-0.385-0.931s0.139-0.684,0.385-0.931
	c0.247-0.247,0.582-0.385,0.931-0.385s0.684,0.139,0.931,0.385c0.247,0.247,0.385,0.582,0.385,0.931s-0.139,0.684-0.385,0.931
	C320.417,100.907,320.082,101.045,319.733,101.045z"/>
<path d="M10.83,92.197l1.867-1.965l6.133,6.419l6.133-6.419l1.867,1.965l-8,8.418L10.83,92.197z M10.83,101.457l1.867-1.965
	l6.133,6.419l6.133-6.419l1.867,1.965l-8,8.418L10.83,101.457z"/>
<path fill="#0081F9" d="M54.877,92.512l1.867-1.965l6.133,6.419l6.133-6.419l1.867,1.965l-8,8.418L54.877,92.512z M54.877,101.772
	l1.867-1.965l6.133,6.419l6.133-6.419l1.867,1.965l-8,8.418L54.877,101.772z"/>
<path fill="none" stroke="#FFFFFF" stroke-width="3" stroke-linecap="round" stroke-linejoin="round" d="M34.961,53.573v1.369
	c0,0.725-0.289,1.422-0.802,1.936c-0.513,0.513-1.209,0.802-1.936,0.802H13.067c-0.725,0-1.422-0.289-1.936-0.802
	c-0.513-0.513-0.802-1.209-0.802-1.936V35.784c0-0.725,0.289-1.422,0.802-1.936c0.513-0.513,1.209-0.802,1.936-0.802h19.157
	c0.725,0,1.422,0.289,1.936,0.802c0.513,0.513,0.802,1.209,0.802,1.936v1.369H22.646c-0.725,0-1.422,0.289-1.936,0.802
	c-0.513,0.513-0.802,1.209-0.802,1.936v10.947c0,0.725,0.289,1.422,0.802,1.936c0.513,0.513,1.209,0.802,1.936,0.802 M22.646,50.836
	h13.683V39.889H22.646 M28.119,47.415c-0.545,0-1.066-0.216-1.452-0.601c-0.385-0.385-0.601-0.907-0.601-1.452
	s0.216-1.066,0.601-1.452c0.385-0.385,0.907-0.601,1.452-0.601s1.066,0.216,1.451,0.601c0.385,0.385,0.602,0.907,0.602,1.452
	s-0.216,1.066-0.602,1.452C29.185,47.199,28.664,47.415,28.119,47.415z M803.138-26.45c0.598,0,1.083-0.485,1.083-1.083
	s-0.485-1.083-1.083-1.083s-1.083,0.485-1.083,1.083S802.54-26.45,803.138-26.45z M815.053-26.45c0.598,0,1.083-0.485,1.083-1.083
	s-0.485-1.083-1.083-1.083s-1.083,0.485-1.083,1.083S814.455-26.45,815.053-26.45z M794.47-49.2h4.333l2.903,14.505
	c0.099,0.499,0.371,0.946,0.766,1.266c0.396,0.318,0.892,0.489,1.4,0.478h10.53c0.508,0.009,1.005-0.16,1.4-0.478
	c0.396-0.319,0.667-0.767,0.766-1.266l1.733-9.09h-18.417"/>
<rect x="793.388" y="-50.283" fill="none" width="26" height="26"/>
<path fill="#0068FF" d="M673.213,53.277v1.369c0,0.725-0.289,1.422-0.802,1.936c-0.513,0.513-1.209,0.802-1.936,0.802h-19.156
	c-0.725,0-1.422-0.289-1.936-0.802c-0.513-0.513-0.802-1.209-0.802-1.936V35.489c0-0.725,0.289-1.422,0.802-1.936
	c0.513-0.513,1.209-0.802,1.936-0.802h19.157c0.725,0,1.422,0.289,1.936,0.802c0.513,0.513,0.802,1.209,0.802,1.936v1.369h-12.316
	c-0.725,0-1.422,0.289-1.936,0.802c-0.513,0.513-0.802,1.209-0.802,1.936v10.947c0,0.725,0.289,1.422,0.802,1.936
	c0.513,0.513,1.209,0.802,1.936,0.802 M660.898,50.541h13.683V39.594h-13.683 M666.371,47.119c-0.545,0-1.066-0.216-1.452-0.601
	c-0.385-0.385-0.601-0.907-0.601-1.452s0.216-1.066,0.601-1.452c0.385-0.385,0.907-0.601,1.452-0.601s1.066,0.216,1.451,0.601
	c0.385,0.385,0.602,0.907,0.602,1.452s-0.216,1.066-0.602,1.452C667.437,46.904,666.916,47.119,666.371,47.119z"/>
<g>
	<path fill="none" stroke="#666666" stroke-width="2" stroke-linecap="round" stroke-linejoin="round" d="M183,47.5
		c4.418,0,8-3.582,8-8s-3.582-8-8-8s-8,3.582-8,8S178.582,47.5,183,47.5z"/>
	<path fill="none" stroke="#666666" stroke-width="2" stroke-linecap="round" stroke-linejoin="round" d="M194.35,51.85L189,46.5"/>
</g>
<path fill="#1E1E1E" d="M23.33,219.936h-3c-1.326,0-2.598,0.527-3.535,1.465c-0.938,0.938-1.465,2.209-1.465,3.535v3h-3v4h3v8h4v-8
	h3l1-4h-4v-3c0-0.265,0.105-0.519,0.293-0.707c0.187-0.187,0.442-0.293,0.707-0.293h3V219.936z"/>
<path fill="none" stroke="#FF004D" stroke-width="2" stroke-linecap="round" stroke-linejoin="round" stroke-opacity="0.6" d="
	M350.882,94.462c-0.305-0.318-0.666-0.57-1.064-0.742s-0.824-0.261-1.255-0.261s-0.857,0.089-1.255,0.261
	c-0.398,0.172-0.759,0.424-1.064,0.742l-0.632,0.66l-0.632-0.66c-0.615-0.642-1.449-1.003-2.319-1.003s-1.704,0.361-2.319,1.003
	s-0.961,1.513-0.961,2.421s0.346,1.779,0.961,2.421l0.632,0.66l4.638,4.842l4.638-4.842l0.632-0.66
	c0.305-0.318,0.546-0.695,0.711-1.111c0.165-0.415,0.25-0.861,0.25-1.31c0-0.45-0.085-0.895-0.25-1.31
	C351.428,95.157,351.187,94.78,350.882,94.462L350.882,94.462z"/>
<path fill="#FF004D" stroke="#FF004D" stroke-width="2" stroke-linecap="round" stroke-linejoin="round" stroke-opacity="0.6" d="
	M441.549,94.129c-0.305-0.318-0.666-0.57-1.064-0.742s-0.824-0.261-1.255-0.261s-0.857,0.089-1.255,0.261
	c-0.398,0.172-0.759,0.424-1.064,0.742l-0.632,0.66l-0.632-0.66c-0.615-0.642-1.449-1.003-2.319-1.003s-1.704,0.361-2.319,1.003
	s-0.961,1.513-0.961,2.421s0.346,1.779,0.961,2.421l0.632,0.66l4.638,4.842l4.638-4.842l0.632-0.66
	c0.305-0.318,0.546-0.695,0.711-1.111c0.165-0.415,0.25-0.861,0.25-1.31c0-0.45-0.085-0.895-0.25-1.31
	C442.095,94.824,441.854,94.447,441.549,94.129L441.549,94.129z"/>
<path fill="#666666" d="M344.405,33.336c0.401,0.401,0.602,0.888,0.602,1.461v11.516c0,0.573-0.201,1.06-0.602,1.461
	c-0.401,0.401-0.888,0.602-1.461,0.602h-3.438v2.063c0,0.573-0.201,1.06-0.602,1.461c-0.401,0.401-0.888,0.602-1.461,0.602h-9.625
	c-0.573,0-1.06-0.201-1.461-0.602s-0.602-0.888-0.602-1.461v-13.75c0-0.573,0.201-1.06,0.602-1.461
	c0.401-0.401,0.888-0.602,1.461-0.602h3.438v-2.063c0-0.573,0.201-1.06,0.602-1.461s0.888-0.602,1.461-0.602h7.391
	c0.573,0,1.06,0.201,1.461,0.602L344.405,33.336z M340.882,31.875v2.75h2.75c-0.057-0.115-0.129-0.215-0.215-0.301l-2.234-2.234
	C341.097,32.004,340.996,31.932,340.882,31.875z M338.132,50.437v-2.063h-4.813c-0.573,0-1.06-0.201-1.461-0.602
	s-0.602-0.888-0.602-1.461V36h-3.438c-0.201,0-0.372,0.072-0.516,0.215c-0.115,0.115-0.172,0.272-0.172,0.473v13.75
	c0,0.201,0.057,0.358,0.172,0.473c0.143,0.143,0.315,0.215,0.516,0.215h9.625c0.201,0,0.358-0.072,0.473-0.215
	C338.06,50.796,338.132,50.638,338.132,50.437z M343.632,46.312V36h-3.094c-0.286,0-0.53-0.1-0.73-0.301
	c-0.201-0.201-0.301-0.444-0.301-0.73v-3.094h-6.188c-0.201,0-0.372,0.072-0.516,0.215c-0.115,0.115-0.172,0.272-0.172,0.473v13.75
	c0,0.201,0.057,0.372,0.172,0.516c0.143,0.115,0.315,0.172,0.516,0.172h9.625c0.201,0,0.358-0.057,0.473-0.172
	C343.56,46.685,343.632,46.513,343.632,46.312z"/>
<g>
	<path fill="none" stroke="#FFFFFF" stroke-width="2" stroke-linecap="round" stroke-linejoin="round" stroke-opacity="0.7" d="
		M224.136,33.702c0.614,0,1.111-0.497,1.111-1.111c0-0.614-0.498-1.111-1.111-1.111c-0.614,0-1.111,0.497-1.111,1.111
		C223.025,33.204,223.522,33.702,224.136,33.702z"/>
	<path fill="none" stroke="#FFFFFF" stroke-width="2" stroke-linecap="round" stroke-linejoin="round" stroke-opacity="0.7" d="
		M231.914,33.702c0.614,0,1.111-0.497,1.111-1.111c0-0.614-0.498-1.111-1.111-1.111c-0.614,0-1.111,0.497-1.111,1.111
		C230.803,33.204,231.3,33.702,231.914,33.702z"/>
	<path fill="none" stroke="#FFFFFF" stroke-width="2" stroke-linecap="round" stroke-linejoin="round" stroke-opacity="0.7" d="
		M216.358,33.702c0.614,0,1.111-0.497,1.111-1.111c0-0.614-0.497-1.111-1.111-1.111s-1.111,0.497-1.111,1.111
		C215.247,33.204,215.745,33.702,216.358,33.702z"/>
	<path fill="none" stroke="#FFFFFF" stroke-width="2" stroke-linecap="round" stroke-linejoin="round" stroke-opacity="0.7" d="
		M224.136,42.59c0.614,0,1.111-0.497,1.111-1.111s-0.498-1.111-1.111-1.111c-0.614,0-1.111,0.497-1.111,1.111
		C223.025,42.093,223.522,42.59,224.136,42.59z"/>
	<path fill="none" stroke="#FFFFFF" stroke-width="2" stroke-linecap="round" stroke-linejoin="round" stroke-opacity="0.7" d="
		M231.914,42.59c0.614,0,1.111-0.497,1.111-1.111s-0.498-1.111-1.111-1.111c-0.614,0-1.111,0.497-1.111,1.111
		C230.803,42.093,231.3,42.59,231.914,42.59z"/>
	<path fill="none" stroke="#FFFFFF" stroke-width="2" stroke-linecap="round" stroke-linejoin="round" stroke-opacity="0.7" d="
		M216.358,42.59c0.614,0,1.111-0.497,1.111-1.111s-0.497-1.111-1.111-1.111s-1.111,0.497-1.111,1.111
		C215.247,42.093,215.745,42.59,216.358,42.59z"/>
	<path fill="none" stroke="#FFFFFF" stroke-width="2" stroke-linecap="round" stroke-linejoin="round" stroke-opacity="0.7" d="
		M224.136,51.48c0.614,0,1.111-0.497,1.111-1.111s-0.498-1.111-1.111-1.111c-0.614,0-1.111,0.497-1.111,1.111
		C223.025,50.982,223.522,51.48,224.136,51.48z"/>
	<path fill="none" stroke="#FFFFFF" stroke-width="2" stroke-linecap="round" stroke-linejoin="round" stroke-opacity="0.7" d="
		M231.914,51.48c0.614,0,1.111-0.497,1.111-1.111s-0.498-1.111-1.111-1.111c-0.614,0-1.111,0.497-1.111,1.111
		C230.803,50.982,231.3,51.48,231.914,51.48z"/>
	<path fill="none" stroke="#FFFFFF" stroke-width="2" stroke-linecap="round" stroke-linejoin="round" stroke-opacity="0.7" d="
		M216.358,51.48c0.614,0,1.111-0.497,1.111-1.111s-0.497-1.111-1.111-1.111s-1.111,0.497-1.111,1.111
		C215.247,50.982,215.745,51.48,216.358,51.48z"/>
</g>
<g>
	<path fill="#FFFFFF" d="M251.639,40.257c-0.346,0-0.636-0.117-0.87-0.352c-0.235-0.234-0.352-0.524-0.352-0.87v-7.333
		c0-0.346,0.117-0.637,0.352-0.871c0.234-0.234,0.524-0.351,0.87-0.351h7.333c0.346,0,0.637,0.117,0.871,0.351
		c0.234,0.235,0.351,0.525,0.351,0.871v7.333c0,0.346-0.117,0.636-0.351,0.87c-0.235,0.235-0.525,0.352-0.871,0.352H251.639z
		 M263.861,40.257c-0.346,0-0.636-0.117-0.87-0.352c-0.235-0.234-0.352-0.524-0.352-0.87v-7.333c0-0.346,0.117-0.637,0.352-0.871
		c0.234-0.234,0.524-0.351,0.87-0.351h7.333c0.346,0,0.636,0.117,0.87,0.351c0.235,0.235,0.352,0.525,0.352,0.871v7.333
		c0,0.346-0.117,0.636-0.352,0.87c-0.234,0.235-0.524,0.352-0.87,0.352H263.861z M251.639,52.479c-0.346,0-0.636-0.117-0.87-0.352
		c-0.235-0.234-0.352-0.524-0.352-0.87v-7.333c0-0.346,0.117-0.637,0.352-0.871c0.234-0.234,0.524-0.351,0.87-0.351h7.333
		c0.346,0,0.637,0.117,0.871,0.351c0.234,0.235,0.351,0.525,0.351,0.871v7.333c0,0.346-0.117,0.636-0.351,0.87
		c-0.235,0.235-0.525,0.352-0.871,0.352H251.639z"/>
	<path fill="#FFFFFF" d="M263.861,40.257c-0.346,0-0.636-0.117-0.87-0.352c-0.235-0.234-0.352-0.524-0.352-0.87v-7.333
		c0-0.346,0.117-0.637,0.352-0.871c0.234-0.234,0.524-0.351,0.87-0.351h7.333c0.346,0,0.637,0.117,0.871,0.351
		c0.234,0.235,0.351,0.525,0.351,0.871v7.333c0,0.346-0.117,0.636-0.351,0.87c-0.235,0.235-0.525,0.352-0.871,0.352H263.861z
		 M263.861,52.479c-0.346,0-0.636-0.117-0.87-0.352c-0.235-0.234-0.352-0.524-0.352-0.87v-7.333c0-0.346,0.117-0.637,0.352-0.871
		c0.234-0.234,0.524-0.351,0.87-0.351h7.333c0.346,0,0.637,0.117,0.871,0.351c0.234,0.235,0.351,0.525,0.351,0.871v7.333
		c0,0.346-0.117,0.636-0.351,0.87c-0.235,0.235-0.525,0.352-0.871,0.352H263.861z"/>
</g>
<g>
	<path fill="none" stroke="#FFFFFF" stroke-width="2" stroke-linecap="round" stroke-linejoin="round" d="M308.926,32.479h-20
		l8,9.46v6.54l4,2v-8.54L308.926,32.479z"/>
</g>
<g>
	<path fill="none" stroke="#1E1E1E" stroke-width="2" stroke-linecap="round" stroke-linejoin="round" d="M49.037,239.936
		c5.523,0,10-4.477,10-10s-4.477-10-10-10s-10,4.477-10,10S43.514,239.936,49.037,239.936z"/>
	<path fill="none" stroke="#1E1E1E" stroke-width="2" stroke-linecap="round" stroke-linejoin="round" d="M39.037,229.936h20"/>
	<path fill="none" stroke="#1E1E1E" stroke-width="2" stroke-linecap="round" stroke-linejoin="round" d="M49.037,219.936
		c2.501,2.739,3.923,6.292,4,10c-0.077,3.708-1.499,7.262-4,10c-2.501-2.738-3.923-6.292-4-10
		C45.114,226.229,46.535,222.675,49.037,219.936L49.037,219.936z"/>
</g>
<path fill="#1E1E1E" d="M90.244,223.15c-0.736,0.382-1.526,0.64-2.356,0.756c0.857-0.601,1.498-1.547,1.804-2.66
	c-0.805,0.561-1.686,0.955-2.605,1.166c-0.618-0.773-1.437-1.286-2.329-1.458c-0.892-0.172-1.807,0.006-2.605,0.505
	c-0.797,0.5-1.431,1.294-1.803,2.259s-0.462,2.047-0.255,3.078c-1.632-0.096-3.228-0.593-4.685-1.458
	c-1.457-0.865-2.743-2.08-3.773-3.565c-0.352,0.712-0.555,1.538-0.555,2.416c-0.001,0.792,0.166,1.571,0.484,2.269
	s0.779,1.293,1.341,1.733c-0.651-0.024-1.289-0.23-1.858-0.601v0.062c0,1.11,0.328,2.186,0.928,3.045s1.435,1.449,2.364,1.668
	c-0.604,0.192-1.238,0.22-1.853,0.083c0.262,0.955,0.773,1.79,1.46,2.388c0.688,0.599,1.517,0.93,2.373,0.948
	c-1.453,1.336-3.249,2.062-5.096,2.058c-0.328,0-0.655-0.022-0.98-0.067c1.875,1.413,4.059,2.162,6.289,2.16
	c7.548,0,11.675-7.324,11.675-13.676c0-0.206-0.004-0.415-0.013-0.621c0.802-0.68,1.496-1.522,2.046-2.487L90.244,223.15z"/>
<path fill="none" stroke="#666666" stroke-width="2" stroke-linecap="round" stroke-linejoin="round" d="M364.469,97.553l5,5l5-5"/>
<path fill="#666666" fill-opacity="0.6" d="M12.733,260.667l-4.4,8.195l4.4,2.927l4.4-2.927L12.733,260.667z M8.333,269.837
	l4.4,6.829l4.4-6.829l-4.4,2.927L8.333,269.837z"/>
<g>
	<circle fill="#322856" cx="372.333" cy="42.667" r="10"/>
	<path fill="none" stroke="#FFFFFF" stroke-width="2" stroke-linecap="round" stroke-linejoin="round" d="M368.333,41.333l4,4l4-4"
		/>
</g>
<path fill="#FF004D" fill-opacity="0.6" stroke="#FF004D" stroke-width="2" stroke-linecap="round" stroke-linejoin="round" stroke-opacity="0.6" d="
	M412.849,36.713c-0.487-0.487-1.064-0.873-1.7-1.136c-0.636-0.263-1.317-0.399-2.005-0.399c-0.688,0-1.369,0.136-2.005,0.399
	c-0.636,0.263-1.213,0.649-1.7,1.136l-1.01,1.01l-1.01-1.01c-0.983-0.983-2.315-1.535-3.705-1.535s-2.722,0.552-3.705,1.535
	s-1.535,2.315-1.535,3.705s0.552,2.722,1.535,3.705l1.01,1.01l7.409,7.41l7.41-7.41l1.01-1.01c0.487-0.486,0.873-1.064,1.136-1.7
	s0.399-1.317,0.399-2.005s-0.136-1.369-0.399-2.005C413.721,37.777,413.335,37.2,412.849,36.713z"/>
<path fill="none" stroke="#0068FF" d="M413.137,91.161c-0.487-0.487-1.064-0.873-1.7-1.136c-0.636-0.263-1.317-0.399-2.005-0.399
	c-0.688,0-1.369,0.136-2.005,0.399c-0.636,0.263-1.213,0.649-1.7,1.136l-1.01,1.01l-1.01-1.01c-0.983-0.983-2.315-1.535-3.705-1.535
	s-2.722,0.552-3.705,1.535s-1.535,2.315-1.535,3.705s0.552,2.722,1.535,3.705l1.01,1.01l7.409,7.41l7.41-7.41l1.01-1.01
	c0.487-0.486,0.873-1.064,1.136-1.7s0.399-1.317,0.399-2.005c0-0.688-0.136-1.369-0.399-2.005
	C414.009,92.225,413.622,91.648,413.137,91.161z"/>
<g>
	<path fill="#3E3E3E" stroke="#726F6F" stroke-width="2" stroke-linecap="round" stroke-linejoin="round" stroke-opacity="0.7" d="
		M440.5,47.75c0-2.209-1.791-4-4-4s-4,1.791-4,4s1.791,4,4,4S440.5,49.959,440.5,47.75z"/>
	<path fill="#3E3E3E" stroke="#726F6F" stroke-width="2" stroke-linecap="round" stroke-linejoin="round" stroke-opacity="0.7" d="
		M452.5,47.75c0-2.209-1.791-4-4-4s-4,1.791-4,4s1.791,4,4,4S452.5,49.959,452.5,47.75z"/>
	<path fill="#3E3E3E" stroke="#726F6F" stroke-width="2" stroke-linecap="round" stroke-linejoin="round" stroke-opacity="0.7" d="
		M464.5,47.75c0-2.209-1.791-4-4-4s-4,1.791-4,4s1.791,4,4,4S464.5,49.959,464.5,47.75z"/>
</g>
<path fill-opacity="0.6" d="M62.244,267.244c0.651,0,1.275,0.259,1.736,0.719c0.46,0.46,0.719,1.085,0.719,1.736
	s-0.259,1.275-0.719,1.736c-0.46,0.46-1.085,0.719-1.736,0.719s-1.275-0.259-1.736-0.719c-0.46-0.46-0.719-1.085-0.719-1.736
	s0.259-1.275,0.719-1.736C60.969,267.502,61.593,267.244,62.244,267.244z M62.244,263.562c4.091,0,7.585,2.545,9,6.136
	c-1.415,3.592-4.909,6.136-9,6.136s-7.585-2.545-9-6.136C54.659,266.106,58.153,263.562,62.244,263.562z M55.028,269.698
	c0.661,1.35,1.688,2.488,2.964,3.284s2.749,1.217,4.253,1.217c1.504,0,2.977-0.422,4.253-1.217c1.276-0.796,2.303-1.933,2.964-3.284
	c-0.661-1.35-1.688-2.488-2.964-3.284c-1.276-0.796-2.749-1.217-4.253-1.217c-1.503,0-2.977,0.422-4.253,1.217
	C56.716,267.21,55.689,268.348,55.028,269.698z"/>
<path fill="none" stroke="#666666" stroke-width="2" stroke-linecap="round" stroke-linejoin="round" stroke-opacity="0.6" d="
	M38.837,265.135c-0.318-0.318-0.695-0.57-1.111-0.742c-0.415-0.172-0.861-0.261-1.31-0.261s-0.895,0.089-1.31,0.261
	s-0.793,0.424-1.111,0.742l-0.66,0.66l-0.66-0.66c-0.642-0.642-1.513-1.003-2.421-1.003s-1.779,0.361-2.421,1.003
	s-1.003,1.513-1.003,2.421s0.361,1.779,1.003,2.421l0.66,0.66l4.842,4.842l4.842-4.842l0.66-0.66
	c0.318-0.318,0.57-0.695,0.743-1.111c0.172-0.415,0.261-0.861,0.261-1.31c0-0.45-0.089-0.895-0.261-1.31
	C39.407,265.831,39.155,265.453,38.837,265.135L38.837,265.135z"/>
<path fill="#666666" fill-opacity="0.6" d="M122.462,266.736c-0.318-0.318-0.695-0.57-1.111-0.742
	c-0.415-0.172-0.861-0.261-1.31-0.261s-0.895,0.089-1.31,0.261s-0.793,0.424-1.111,0.742l-0.66,0.66l-0.66-0.66
	c-0.642-0.642-1.513-1.003-2.421-1.003s-1.779,0.361-2.421,1.003s-1.003,1.513-1.003,2.421s0.361,1.779,1.003,2.421l0.66,0.66
	l4.842,4.842l4.842-4.842l0.66-0.66c0.318-0.318,0.57-0.695,0.743-1.111c0.172-0.415,0.261-0.861,0.261-1.31
	c0-0.45-0.089-0.895-0.261-1.31C123.032,267.432,122.78,267.054,122.462,266.736L122.462,266.736z"/>
<g>
	<path fill="#666666" fill-opacity="0.6" d="M93.631,260.371l-4.477,8.085h8.955L93.631,260.371z M93.631,263.367l2.014,3.637
		h-4.027L93.631,263.367z M83.935,269.182c-2.402,0-4.356,1.953-4.356,4.356s1.953,4.356,4.356,4.356
		c2.402,0,4.356-1.953,4.356-4.356S86.337,269.182,83.935,269.182z M89.742,269.908v7.985h7.985v-7.985H89.742z M83.935,270.634
		c1.601,0,2.904,1.302,2.904,2.904s-1.302,2.904-2.904,2.904c-1.601,0-2.904-1.302-2.904-2.904S82.333,270.634,83.935,270.634z
		 M91.194,271.359h5.081v5.082h-5.081V271.359z"/>
</g>
<path d="M319.636,158.865h-8.484v8.694H306.7v-8.694h-8.484v-4.032h8.484v-8.694h4.452v8.694h8.484L319.636,158.865L319.636,158.865
	z"/>
<rect x="701.802" y="-37.429" fill="#04D6BD" width="19.667" height="13"/>
<g id="icons_Q2">
	<path fill="#0068FF" d="M774.039,35.73c-0.374-0.385-0.886-0.608-1.423-0.619h-18.869l-0.247-2.103
		c-0.125-0.927-0.92-1.617-1.856-1.609h-1.918c-0.683,0-1.237,0.554-1.237,1.237c0,0.683,0.554,1.237,1.237,1.237h1.361l1.98,16.642
		c-1.116,0.659-1.798,1.86-1.794,3.155c0,2.05,1.662,3.712,3.712,3.712c1.571-0.025,2.969-1.005,3.526-2.475h6.558
		c0.557,1.469,1.955,2.45,3.526,2.475c2.05,0,3.712-1.662,3.712-3.712s-1.662-3.712-3.712-3.712
		c-1.571,0.025-2.969,1.005-3.526,2.475h-6.558c-0.477-1.31-1.648-2.242-3.031-2.413l-0.124-1.299h15.652
		c0.912-0.022,1.673-0.704,1.794-1.609l1.67-9.775C774.542,36.767,774.386,36.19,774.039,35.73z M769.833,53.672
		c0,0.683-0.554,1.237-1.237,1.237s-1.237-0.554-1.237-1.237s0.554-1.237,1.237-1.237C769.279,52.434,769.833,52.988,769.833,53.672
		z M756.222,53.672c0,0.683-0.554,1.237-1.237,1.237s-1.237-0.554-1.237-1.237s0.554-1.237,1.237-1.237
		S756.222,52.988,756.222,53.672z M770.451,46.248h-15.405l-0.99-8.661h17.818L770.451,46.248z"/>
</g>
<g id="icons_Q2_1_">
	<path fill="#FFFFFF" d="M144.819,35.246c-0.374-0.385-0.886-0.608-1.423-0.619h-18.869l-0.247-2.103
		c-0.125-0.927-0.92-1.617-1.856-1.609h-1.918c-0.683,0-1.237,0.554-1.237,1.237c0,0.683,0.554,1.237,1.237,1.237h1.361l1.98,16.642
		c-1.116,0.659-1.798,1.86-1.794,3.155c0,2.05,1.662,3.712,3.712,3.712c1.571-0.025,2.969-1.005,3.526-2.475h6.558
		c0.557,1.469,1.955,2.45,3.526,2.475c2.05,0,3.712-1.662,3.712-3.712s-1.662-3.712-3.712-3.712
		c-1.571,0.025-2.969,1.005-3.526,2.475h-6.558c-0.477-1.31-1.648-2.242-3.031-2.413l-0.124-1.299h15.652
		c0.912-0.022,1.673-0.704,1.794-1.609l1.67-9.775C145.321,36.283,145.166,35.706,144.819,35.246z M140.612,53.187
		c0,0.683-0.554,1.237-1.237,1.237s-1.237-0.554-1.237-1.237s0.554-1.237,1.237-1.237S140.612,52.504,140.612,53.187z
		 M127.002,53.187c0,0.683-0.554,1.237-1.237,1.237s-1.237-0.554-1.237-1.237s0.554-1.237,1.237-1.237
		S127.002,52.504,127.002,53.187z M141.231,45.763h-15.405l-0.99-8.661h17.818L141.231,45.763z"/>
</g>
<g>
	<circle fill="#322856" cx="812.667" cy="42" r="15"/>
	<path fill="none" stroke="#FFFFFF" stroke-width="2" stroke-linecap="round" stroke-linejoin="round" d="M806.667,40l6,6l6-6"/>
</g>
<g>
	<path fill-opacity="0.6" d="M477.379,98.187h-8.484v8.694h-4.452v-8.694h-8.484v-4.032h8.484v-8.694h4.452v8.694h8.484V98.187z"/>
</g>
<g>
	<circle fill="#D9D9D9" fill-opacity="0.2" cx="353.333" cy="155.667" r="18"/>
	<path fill="#FFFFFF" fill-opacity="0.6" d="M353.211,144.776l-6.513,10.942l6.513,3.908l6.513-3.908L353.211,144.776z
		 M346.698,157.021l6.513,9.118l6.513-9.118l-6.513,3.908L346.698,157.021z"/>
</g>
<g>
	<path fill="none" stroke="#FFFFFF" stroke-width="2" stroke-linecap="round" stroke-linejoin="round" d="M494,107v-4.5 M500,107v-9
		 M506,107V93.5 M512,107V89"/>
</g>
<path fill="#FFFFFF" d="M551.699,95.131l-7.19-0.62l-2.81-6.62l-2.81,6.63l-7.19,0.61l5.46,4.73l-1.64,7.03l6.18-3.73l6.18,3.73
	l-1.63-7.03L551.699,95.131z M541.699,101.291l-3.76,2.27l1-4.28l-3.32-2.88l4.38-0.38l1.7-4.03l1.71,4.04l4.38,0.38l-3.32,2.88
	l1,4.28L541.699,101.291z"/>
<g>
	<path d="M568.833,92.167h14v2h-14V92.167z M568.833,100.167v-2h14v2H568.833z M565.833,91.667c0.398,0,0.779,0.158,1.061,0.439
		c0.281,0.281,0.439,0.663,0.439,1.061s-0.158,0.779-0.439,1.061c-0.281,0.281-0.663,0.439-1.061,0.439s-0.779-0.158-1.061-0.439
		c-0.281-0.281-0.439-0.663-0.439-1.061s0.158-0.779,0.439-1.061C565.054,91.825,565.435,91.667,565.833,91.667z M565.833,97.667
		c0.398,0,0.779,0.158,1.061,0.439c0.281,0.281,0.439,0.663,0.439,1.061s-0.158,0.779-0.439,1.061
		c-0.281,0.281-0.663,0.439-1.061,0.439s-0.779-0.158-1.061-0.439c-0.281-0.281-0.439-0.663-0.439-1.061s0.158-0.779,0.439-1.061
		C565.054,97.825,565.435,97.667,565.833,97.667z M568.833,106.167v-2h14v2H568.833z M565.833,103.667
		c0.398,0,0.779,0.158,1.061,0.439c0.281,0.281,0.439,0.663,0.439,1.061c0,0.398-0.158,0.779-0.439,1.061
		c-0.281,0.281-0.663,0.439-1.061,0.439s-0.779-0.158-1.061-0.439c-0.281-0.281-0.439-0.663-0.439-1.061
		c0-0.398,0.158-0.779,0.439-1.061C565.054,103.825,565.435,103.667,565.833,103.667z"/>
</g>
<path fill="#00068F" d="M606.667,106.333c-0.55,0-1.021-0.196-1.413-0.587c-0.391-0.392-0.587-0.863-0.587-1.413v-14
	c0-0.55,0.196-1.021,0.587-1.413c0.392-0.391,0.863-0.587,1.413-0.587h14c0.55,0,1.021,0.196,1.413,0.587
	c0.391,0.392,0.587,0.863,0.587,1.413v14c0,0.55-0.196,1.021-0.587,1.413c-0.392,0.391-0.863,0.587-1.413,0.587H606.667z
	 M606.667,104.333h14v-14h-14V104.333z"/>
<path fill="#00068F" d="M640.667,106.333c-0.55,0-1.021-0.196-1.413-0.587c-0.391-0.392-0.587-0.863-0.587-1.413v-14
	c0-0.55,0.196-1.021,0.587-1.413c0.392-0.391,0.863-0.587,1.413-0.587h14c0.55,0,1.021,0.196,1.413,0.587
	c0.391,0.392,0.587,0.863,0.587,1.413v14c0,0.55-0.196,1.021-0.587,1.413c-0.392,0.391-0.863,0.587-1.413,0.587H640.667z
	 M640.667,104.333h14v-14h-14V104.333z M646.267,101.108c0.133,0,0.258-0.021,0.375-0.062c0.117-0.042,0.225-0.113,0.325-0.213
	l5.675-5.675c0.183-0.183,0.275-0.408,0.275-0.675s-0.1-0.5-0.3-0.7c-0.183-0.183-0.417-0.275-0.7-0.275s-0.517,0.092-0.7,0.275
	l-4.95,4.95l-2.175-2.175c-0.183-0.183-0.408-0.275-0.675-0.275s-0.5,0.1-0.7,0.3c-0.183,0.183-0.275,0.417-0.275,0.7
	s0.092,0.517,0.275,0.7l2.85,2.85c0.1,0.1,0.208,0.171,0.325,0.213C646.008,101.088,646.133,101.108,646.267,101.108z"/>
<path fill="#0068FF" d="M865.881,42.049c-0.383,0-0.75,0.144-1.021,0.401s-0.423,0.605-0.423,0.968v0.52l-2.138-2.025
	c-0.755-0.709-1.775-1.108-2.838-1.108s-2.083,0.398-2.838,1.108l-1.011,0.958l-3.582-3.394c-0.765-0.69-1.782-1.075-2.838-1.075
	s-2.073,0.385-2.838,1.075l-2.138,2.025v-7.663c0-0.363,0.152-0.711,0.423-0.968s0.638-0.401,1.021-0.401h10.111
	c0.383,0,0.75-0.144,1.021-0.401s0.423-0.605,0.423-0.968s-0.152-0.711-0.423-0.968s-0.638-0.401-1.021-0.401H845.66
	c-1.149,0-2.251,0.433-3.064,1.202c-0.813,0.77-1.269,1.814-1.269,2.903V50.26c0,1.089,0.457,2.133,1.269,2.903
	s1.915,1.202,3.064,1.202h17.333c1.149,0,2.251-0.433,3.064-1.202c0.813-0.77,1.269-1.814,1.269-2.903v-6.842
	c0-0.363-0.152-0.711-0.423-0.968S866.264,42.049,865.881,42.049z M845.659,51.628c-0.383,0-0.75-0.144-1.021-0.401
	s-0.423-0.605-0.423-0.968v-4.885l4.189-3.968c0.212-0.192,0.494-0.298,0.787-0.298c0.293,0,0.575,0.107,0.787,0.298l4.579,4.338
	l6.211,5.884C860.768,51.628,845.659,51.628,845.659,51.628z M864.437,50.26c-0.002,0.262-0.093,0.516-0.26,0.725l-6.514-6.199
	l1.011-0.958c0.104-0.1,0.227-0.18,0.364-0.234c0.136-0.054,0.283-0.082,0.431-0.082s0.294,0.028,0.431,0.082
	c0.136,0.054,0.26,0.134,0.364,0.234l4.174,3.982v2.45C864.438,50.26,864.437,50.26,864.437,50.26z M871.24,30.13l-4.333-4.105
	c-0.137-0.125-0.299-0.222-0.477-0.287c-0.352-0.137-0.746-0.137-1.098,0c-0.177,0.065-0.339,0.163-0.477,0.287l-4.333,4.105
	c-0.272,0.258-0.425,0.607-0.425,0.972c0,0.364,0.153,0.714,0.425,0.972c0.272,0.258,0.641,0.402,1.026,0.402
	s0.754-0.145,1.026-0.402l1.863-1.779v7.649c0,0.363,0.152,0.711,0.423,0.968s0.638,0.401,1.021,0.401s0.75-0.144,1.021-0.401
	s0.423-0.605,0.423-0.968v-7.649l1.863,1.779c0.134,0.128,0.294,0.23,0.47,0.3c0.176,0.069,0.365,0.105,0.555,0.105
	c0.191,0,0.38-0.036,0.556-0.105s0.336-0.171,0.47-0.3c0.135-0.127,0.243-0.279,0.316-0.445c0.073-0.167,0.111-0.346,0.111-0.526
	c0-0.181-0.038-0.36-0.111-0.526S871.375,30.258,871.24,30.13z"/>
<g>
	<path fill="#0068FF" d="M394.625,162.722h1.138l7.01-7.01l-1.138-1.138l-7.01,7.01V162.722z M406.247,154.534l-3.454-3.413
		l1.138-1.138c0.312-0.312,0.694-0.467,1.148-0.467s0.836,0.156,1.148,0.467l1.138,1.138c0.312,0.312,0.474,0.688,0.488,1.128
		s-0.135,0.816-0.447,1.127L406.247,154.534z M393.812,164.348c-0.23,0-0.423-0.078-0.579-0.234
		c-0.156-0.156-0.234-0.348-0.234-0.579v-2.296c0-0.108,0.02-0.213,0.061-0.315c0.041-0.102,0.102-0.193,0.183-0.275l8.371-8.371
		l3.454,3.454l-8.371,8.371c-0.081,0.081-0.173,0.142-0.274,0.183c-0.102,0.041-0.207,0.061-0.315,0.061L393.812,164.348
		L393.812,164.348z M402.204,155.144l-0.569-0.569l1.138,1.138L402.204,155.144z"/>
	<path fill="none" stroke="#0068FF" d="M388.333,141.849h24c1.657,0,3,1.343,3,3v24c0,1.657-1.343,3-3,3h-24c-1.657,0-3-1.343-3-3
		v-24C385.333,143.192,386.676,141.849,388.333,141.849z"/>
</g>
<path d="M459.08,154.115l-1.038,1.795l-12.589-7.265l1.038-1.795l3.155,1.816l1.411-0.384l4.494,2.595l0.384,1.422L459.08,154.115z
	 M444.167,164.586v-12.454h5.262l7.192,4.151v8.303c0,0.55-0.219,1.078-0.608,1.468c-0.389,0.389-0.917,0.608-1.468,0.608h-8.303
	c-0.55,0-1.078-0.219-1.468-0.608C444.385,165.665,444.167,165.137,444.167,164.586z M446.242,164.586h8.303v-7.057l-5.749-3.321
	h-2.553v10.378H446.242z"/>
<path fill="none" stroke="#000000" d="M439.5,141.85h24c1.657,0,3,1.343,3,3v24c0,1.657-1.343,3-3,3h-24c-1.657,0-3-1.343-3-3v-24
	C436.5,143.193,437.843,141.85,439.5,141.85z"/>
<path fill="none" stroke="#666666" stroke-linecap="round" stroke-linejoin="round" d="M143.069,269.2h-5.4
	c-0.663,0-1.2,0.537-1.2,1.2v5.4c0,0.663,0.537,1.2,1.2,1.2h5.4c0.663,0,1.2-0.537,1.2-1.2v-5.4
	C144.269,269.737,143.731,269.2,143.069,269.2z"/>
<path fill="none" stroke="#666666" stroke-linecap="round" stroke-linejoin="round" d="M135.069,273.8h-0.6
	c-0.318,0-0.623-0.126-0.849-0.351c-0.225-0.225-0.351-0.53-0.351-0.849v-5.4c0-0.318,0.126-0.623,0.351-0.849
	c0.225-0.225,0.53-0.351,0.849-0.351h5.4c0.318,0,0.623,0.126,0.849,0.351c0.225,0.225,0.351,0.53,0.351,0.849v0.6"/>
<path fill="#1E1E1E" d="M109.961,219.936c-2.987,0-3.362,0.013-4.535,0.066c-1.171,0.053-1.971,0.239-2.67,0.511
	c-0.734,0.276-1.399,0.71-1.948,1.269c-0.56,0.549-0.993,1.215-1.269,1.949c-0.272,0.699-0.457,1.499-0.511,2.67
	c-0.053,1.174-0.066,1.548-0.066,4.535s0.013,3.362,0.066,4.535c0.053,1.171,0.239,1.971,0.511,2.67
	c0.282,0.723,0.657,1.337,1.269,1.949c0.549,0.56,1.214,0.993,1.948,1.269c0.7,0.271,1.499,0.457,2.67,0.511
	c1.174,0.053,1.548,0.066,4.535,0.066s3.362-0.013,4.535-0.066c1.171-0.053,1.971-0.239,2.67-0.511
	c0.734-0.276,1.399-0.709,1.949-1.269c0.56-0.549,0.993-1.215,1.269-1.949c0.271-0.699,0.457-1.499,0.511-2.67
	c0.053-1.174,0.066-1.548,0.066-4.535s-0.013-3.362-0.066-4.535c-0.053-1.171-0.239-1.971-0.512-2.67
	c-0.276-0.734-0.709-1.399-1.268-1.949c-0.549-0.56-1.215-0.993-1.949-1.269c-0.699-0.271-1.499-0.457-2.67-0.511
	C113.322,219.949,112.947,219.936,109.961,219.936z M109.961,221.918c2.937,0,3.285,0.012,4.445,0.064
	c1.072,0.049,1.655,0.228,2.043,0.379c0.514,0.2,0.88,0.437,1.265,0.822c0.385,0.385,0.623,0.751,0.823,1.265
	c0.151,0.388,0.33,0.97,0.379,2.043c0.052,1.159,0.064,1.508,0.064,4.445s-0.012,3.285-0.064,4.445
	c-0.049,1.073-0.228,1.655-0.379,2.043c-0.176,0.478-0.457,0.91-0.823,1.265c-0.355,0.365-0.787,0.646-1.265,0.822
	c-0.387,0.151-0.97,0.33-2.043,0.379c-1.159,0.052-1.508,0.064-4.445,0.064s-3.286-0.012-4.445-0.064
	c-1.073-0.049-1.655-0.228-2.043-0.379c-0.478-0.176-0.91-0.457-1.265-0.822c-0.365-0.355-0.646-0.787-0.822-1.265
	c-0.151-0.387-0.33-0.97-0.379-2.043c-0.052-1.159-0.064-1.508-0.064-4.445s0.012-3.285,0.064-4.445
	c0.049-1.073,0.228-1.655,0.379-2.043c0.2-0.514,0.437-0.88,0.822-1.265c0.355-0.365,0.787-0.646,1.265-0.822
	c0.388-0.151,0.97-0.33,2.043-0.379C106.675,221.93,107.024,221.918,109.961,221.918z"/>
<path fill="#1E1E1E" d="M109.96,225.012c-1.571,0-3.077,0.624-4.188,1.735c-1.111,1.111-1.735,2.617-1.735,4.188
	s0.624,3.077,1.735,4.188c1.111,1.111,2.617,1.735,4.188,1.735c1.571,0,3.077-0.624,4.188-1.735
	c1.111-1.111,1.735-2.617,1.735-4.188s-0.624-3.077-1.735-4.188C113.037,225.636,111.531,225.012,109.96,225.012z M109.96,234.743
	c-1.01,0-1.978-0.401-2.692-1.115c-0.714-0.714-1.115-1.683-1.115-2.692s0.401-1.978,1.115-2.692s1.683-1.115,2.692-1.115
	c1.01,0,1.978,0.401,2.692,1.115c0.714,0.714,1.115,1.683,1.115,2.692s-0.401,1.978-1.115,2.692S110.97,234.743,109.96,234.743z
	 M117.321,225.097c0,0.178-0.035,0.354-0.103,0.518c-0.068,0.164-0.168,0.314-0.293,0.439c-0.126,0.126-0.275,0.225-0.439,0.293
	s-0.34,0.103-0.518,0.103s-0.354-0.035-0.518-0.103s-0.313-0.168-0.439-0.293c-0.126-0.126-0.225-0.275-0.293-0.439
	s-0.103-0.34-0.103-0.518c0-0.359,0.143-0.703,0.397-0.957c0.254-0.254,0.598-0.397,0.957-0.397s0.703,0.143,0.957,0.397
	C117.179,224.393,117.321,224.738,117.321,225.097z"/>
<path fill="#666666" d="M491.542,162.629h1.138l7.01-7.01l-1.138-1.138l-7.01,7.01V162.629z M503.164,154.441l-3.454-3.413
	l1.138-1.138c0.312-0.312,0.694-0.467,1.148-0.467s0.836,0.156,1.148,0.467l1.138,1.138c0.312,0.312,0.474,0.688,0.488,1.128
	s-0.135,0.816-0.447,1.127L503.164,154.441z M490.729,164.255c-0.23,0-0.423-0.078-0.579-0.234
	c-0.156-0.156-0.234-0.348-0.234-0.579v-2.296c0-0.108,0.02-0.213,0.061-0.315c0.041-0.102,0.102-0.193,0.183-0.275l8.371-8.371
	l3.454,3.454l-8.371,8.371c-0.081,0.081-0.173,0.142-0.274,0.183c-0.102,0.041-0.207,0.061-0.315,0.061L490.729,164.255
	L490.729,164.255z M499.121,155.051l-0.569-0.569l1.138,1.138L499.121,155.051z"/>
<path fill="none" stroke="#666666" d="M485.25,141.756h24c1.657,0,3,1.343,3,3v24c0,1.657-1.343,3-3,3h-24c-1.657,0-3-1.343-3-3v-24
	C482.25,143.099,483.593,141.756,485.25,141.756z"/>
<path fill="#0068FF" d="M552.749,154.104l-1.038,1.795l-12.589-7.265l1.038-1.795l3.155,1.816l1.411-0.384l4.494,2.595l0.384,1.422
	L552.749,154.104z M537.836,164.575v-12.454h5.262l7.192,4.151v8.303c0,0.55-0.219,1.078-0.608,1.468
	c-0.389,0.389-0.917,0.608-1.468,0.608h-8.303c-0.55,0-1.078-0.219-1.468-0.608C538.054,165.654,537.836,165.126,537.836,164.575z
	 M539.911,164.575h8.303v-7.057l-5.749-3.321h-2.553L539.911,164.575L539.911,164.575z"/>
<path fill="none" stroke="#0068FF" d="M533.169,141.839h24c1.657,0,3,1.343,3,3v24c0,1.657-1.343,3-3,3h-24c-1.657,0-3-1.343-3-3
	v-24C530.169,143.182,531.512,141.839,533.169,141.839z"/>
<path fill="#A352CA" fill-opacity="0.33" d="M909.135,39.68v-12h16v12H909.135z M889.135,47.68v-20h16v20H889.135z M909.135,63.68
	v-20h16v20H909.135z M889.135,63.68v-12h16v12H889.135z"/>
<path fill="#FFFFFF" d="M671.443,104.678h1.4l8.625-8.625l-1.4-1.4l-8.625,8.625V104.678z M685.743,94.603l-4.25-4.2l1.4-1.4
	c0.383-0.383,0.854-0.575,1.413-0.575c0.558,0,1.029,0.192,1.412,0.575l1.4,1.4c0.383,0.383,0.583,0.846,0.6,1.388
	c0.017,0.541-0.167,1.004-0.55,1.387L685.743,94.603z M670.443,106.678c-0.283,0-0.521-0.096-0.712-0.288
	c-0.192-0.191-0.288-0.429-0.288-0.712v-2.825c0-0.133,0.025-0.262,0.075-0.387s0.125-0.238,0.225-0.338l10.3-10.3l4.25,4.25
	l-10.3,10.3c-0.1,0.1-0.212,0.175-0.337,0.225c-0.125,0.05-0.255,0.075-0.388,0.075H670.443z M680.768,95.353l-0.7-0.7l1.4,1.4
	L680.768,95.353z"/>
<path fill="#0068FF" d="M695.826,106.257h1.4l8.625-8.625l-1.4-1.4l-8.625,8.625V106.257z M710.126,96.183l-4.25-4.2l1.4-1.4
	c0.383-0.383,0.854-0.575,1.413-0.575c0.558,0,1.029,0.192,1.412,0.575l1.4,1.4c0.383,0.383,0.583,0.846,0.6,1.388
	c0.017,0.541-0.167,1.004-0.55,1.387L710.126,96.183z M694.826,108.257c-0.283,0-0.521-0.096-0.712-0.288
	c-0.192-0.191-0.288-0.429-0.288-0.712v-2.825c0-0.133,0.025-0.262,0.075-0.387s0.125-0.238,0.225-0.338l10.3-10.3l4.25,4.25
	l-10.3,10.3c-0.1,0.1-0.212,0.175-0.337,0.225c-0.125,0.05-0.255,0.075-0.388,0.075H694.826z M705.151,96.933l-0.7-0.7l1.4,1.4
	L705.151,96.933z"/>
<g>
	<path fill="none" stroke="#666666" stroke-width="6" stroke-linecap="round" stroke-linejoin="round" d="M967,44.39h-28"/>
	<path fill="none" stroke="#666666" stroke-width="6" stroke-linecap="round" stroke-linejoin="round" d="M953,58.39l-14-14l14-14"
		/>
</g>
<path fill="#0068FF" d="M595.324,151.271c0-0.263-0.075-0.52-0.217-0.742c-0.142-0.221-0.344-0.398-0.583-0.507
	c-0.239-0.11-0.504-0.149-0.765-0.113c-0.26,0.036-0.505,0.147-0.705,0.318l-4.918,4.216c-0.022,0.019-0.05,0.03-0.08,0.03
	c-0.029,0-0.058-0.009-0.08-0.028l-4.89-3.94c-0.202-0.163-0.446-0.265-0.704-0.295s-0.519,0.014-0.753,0.126
	s-0.431,0.288-0.57,0.508c-0.138,0.22-0.211,0.474-0.211,0.733v10.454c0,0.181,0.036,0.359,0.105,0.526s0.17,0.318,0.298,0.446
	s0.279,0.229,0.446,0.298s0.346,0.105,0.526,0.105s0.359-0.036,0.526-0.105s0.318-0.17,0.446-0.298s0.229-0.279,0.298-0.446
	c0.069-0.167,0.105-0.346,0.105-0.526v-7.32c0-0.105,0.121-0.164,0.203-0.098l3.422,2.756c0.25,0.201,0.563,0.309,0.883,0.304
	c0.321-0.005,0.63-0.122,0.874-0.331l3.388-2.905c0.018-0.015,0.04-0.025,0.064-0.029c0.024-0.003,0.048,0,0.069,0.01
	c0.022,0.01,0.04,0.026,0.053,0.046s0.02,0.043,0.02,0.067v7.5c0,0.365,0.145,0.714,0.403,0.972s0.608,0.403,0.972,0.403
	s0.714-0.145,0.972-0.403s0.403-0.608,0.403-0.972L595.324,151.271L595.324,151.271z"/>
<path fill="#0068FF" d="M588.086,142.457c-8.284,0-15,6.716-15,15s6.716,15,15,15s15-6.716,15-15S596.37,142.457,588.086,142.457z
	 M575.086,157.457c0-7.18,5.82-13,13-13s13,5.82,13,13s-5.82,13-13,13S575.086,164.637,575.086,157.457z"/>
<g>
	<g>
		<g>
			<g>
				<g>
					<g>
						<g>
							<g>
								<g>
									<g>
										<g>
											<g>
												<g>
													<g>
														<g>
															<g>
																<g>
																	<g>
																		<g>
																			<g>
																				<g>
																					<g>
																						<g>
																							<g>
																								<g>
																									<g>
																										<g>
																											<defs>
																												<rect id="SVGID_7_" x="984.638" y="27.75" width="32" height="32"/>
																											</defs>
																											<clipPath id="SVGID_8_">
																												<use xlink:href="#SVGID_7_"  overflow="visible"/>
																											</clipPath>
																											<g clip-path="url(#SVGID_8_)">
																												<path fill="#18C9C1" d="M1000.638,59.75c-8.837,0-16-7.163-16-16s7.163-16,16-16s16,7.163,16,16
																													S1009.474,59.75,1000.638,59.75z M1008.631,43.969l-7.496-12.219l-7.498,12.22l7.498,4.353
																													L1008.631,43.969z M1008.638,45.366l-7.502,4.351l-7.498-4.35l7.498,10.378L1008.638,45.366z"/>
																												<path fill="#18C9C1" fill-opacity="0.298" d="M1001.135,31.75v8.87l7.497,3.35L1001.135,31.75z
																													 M1001.135,49.718v6.027l7.502-10.379L1001.135,49.718z"/>
																												<path fill="#18C9C1" fill-opacity="0.801" d="M1001.135,48.323l7.497-4.353l-7.497-3.348V48.323z"/>
																												<path fill="#18C9C1" fill-opacity="0.298" d="M993.638,43.97l7.498,4.353v-7.701L993.638,43.97z"/>
																											</g>
																										</g>
																									</g>
																								</g>
																							</g>
																						</g>
																					</g>
																				</g>
																			</g>
																		</g>
																	</g>
																</g>
															</g>
														</g>
													</g>
												</g>
											</g>
										</g>
									</g>
								</g>
							</g>
						</g>
					</g>
				</g>
			</g>
		</g>
	</g>
</g>
<g>
	<g>
		<g>
			<g>
				<g>
					<g>
						<g>
							<g>
								<g>
									<g>
										<g>
											<g>
												<g>
													<g>
														<g>
															<g>
																<g>
																	<g>
																		<g>
																			<g>
																				<g>
																					<g>
																						<g>
																							<g>
																								<g>
																									<g>
																										<g>
																											<defs>
																												<rect id="SVGID_9_" x="1027.107" y="27.906" width="32" height="32"/>
																											</defs>
																											<clipPath id="SVGID_10_">
																												<use xlink:href="#SVGID_9_"  overflow="visible"/>
																											</clipPath>
																											<g clip-path="url(#SVGID_10_)">
																												<path fill="#A352CA" d="M1043.107,59.906c-8.837,0-16-7.163-16-16s7.163-16,16-16s16,7.163,16,16
																													S1051.944,59.906,1043.107,59.906z M1051.101,44.125l-7.496-12.219l-7.498,12.22l7.498,4.353
																													L1051.101,44.125z M1051.107,45.522l-7.502,4.351l-7.498-4.35l7.498,10.378L1051.107,45.522z"/>
																												<path fill="#A352CA" fill-opacity="0.298" d="M1043.605,31.906v8.87l7.497,3.35L1043.605,31.906z
																													 M1043.605,49.874v6.027l7.502-10.379L1043.605,49.874z"/>
																												<path fill="#A352CA" fill-opacity="0.801" d="M1043.605,48.48l7.497-4.353l-7.497-3.348V48.48z"/>
																												<path fill="#A352CA" fill-opacity="0.298" d="M1036.107,44.127l7.498,4.353v-7.701L1036.107,44.127z"/>
																											</g>
																										</g>
																									</g>
																								</g>
																							</g>
																						</g>
																					</g>
																				</g>
																			</g>
																		</g>
																	</g>
																</g>
															</g>
														</g>
													</g>
												</g>
											</g>
										</g>
									</g>
								</g>
							</g>
						</g>
					</g>
				</g>
			</g>
		</g>
	</g>
</g>
<path fill="none" stroke="#0068FF" stroke-width="3" stroke-linecap="round" stroke-linejoin="round" d="M617.9,156.376h18.267
	 M617.9,156.376l0.001-12.919l18.266,12.919 M617.9,156.376l-2.733,13.081l20.999-13.081"/>
<path fill="#FFFFFF" stroke="#FFFFFF" d="M159.699,271.806v5.5h-1v-5.5v-0.5h-0.5h-5.5v-1h5.5h0.5v-0.5v-5.5h1v5.5v0.5h0.5h5.5v1
	h-5.5h-0.5V271.806z"/>
<path fill="#0068FF" d="M660.667,141.957c-2.67,0-5.28,0.792-7.5,2.275c-2.22,1.483-3.95,3.592-4.972,6.059
	c-1.022,2.467-1.289,5.181-0.768,7.8s1.807,5.024,3.695,6.912s4.294,3.174,6.912,3.695c2.618,0.521,5.333,0.254,7.8-0.768
	s4.575-2.752,6.059-4.972c1.483-2.22,2.275-4.83,2.275-7.5c-0.003-3.579-1.427-7.011-3.958-9.542
	C667.678,143.384,664.246,141.961,660.667,141.957z M671.055,153.957h-3.95c-0.211-2.993-1.198-5.879-2.862-8.375
	c1.786,0.651,3.362,1.773,4.562,3.247C670.003,150.305,670.781,152.076,671.055,153.957z M657.242,156.957h6.85
	c-0.3,3.087-1.525,5.962-3.425,8.075C658.767,162.92,657.542,160.045,657.242,156.957z M657.242,153.957
	c0.3-3.087,1.525-5.962,3.425-8.075c1.9,2.113,3.125,4.988,3.425,8.075H657.242z M657.092,145.582
	c-1.665,2.496-2.651,5.382-2.862,8.375h-3.95c0.273-1.881,1.051-3.653,2.251-5.128C653.73,147.355,655.306,146.233,657.092,145.582z
	 M650.279,156.957h3.95c0.211,2.993,1.198,5.879,2.862,8.375c-1.787-0.648-3.365-1.77-4.565-3.245
	C651.327,160.613,650.55,158.839,650.279,156.957z M664.242,165.332c1.665-2.496,2.651-5.382,2.862-8.375h3.95
	c-0.271,1.882-1.048,3.655-2.247,5.13C667.607,163.563,666.029,164.684,664.242,165.332z"/>
<path fill="#1E1E1E" d="M145.881,220.936h-9.625c-3.438,0-6.188,2.75-6.188,6.188v9.625c0,3.438,2.75,6.188,6.188,6.188h9.625
	c3.438,0,6.188-2.75,6.188-6.188v-9.625C152.069,223.686,149.319,220.936,145.881,220.936z M138.319,238.124
	c0,0.413-0.275,0.688-0.688,0.688h-2.75c-0.413,0-0.688-0.275-0.688-0.688v-8.25c0-0.413,0.275-0.688,0.688-0.688h2.75
	c0.413,0,0.688,0.275,0.688,0.688V238.124z M136.256,228.499c-1.169,0-2.063-0.894-2.063-2.063s0.894-2.063,2.063-2.063
	s2.063,0.894,2.063,2.063S137.425,228.499,136.256,228.499z M147.944,238.124c0,0.413-0.275,0.688-0.688,0.688h-2.063
	c-0.413,0-0.688-0.275-0.688-0.688v-2.406v-0.688v-1.375c0-0.55-0.481-1.031-1.031-1.031s-1.031,0.481-1.031,1.031v1.375v0.688
	v2.406c0,0.413-0.275,0.688-0.688,0.688h-2.063c-0.413,0-0.688-0.275-0.688-0.688v-8.25c0-0.413,0.275-0.688,0.688-0.688h2.75
	c0.206,0,0.344,0.069,0.481,0.206c0.413-0.137,0.825-0.206,1.238-0.206c2.063,0,3.781,1.719,3.781,3.781v5.157H147.944z"/>
<path fill="#968E8E" d="M583.087,35.252c-0.736,0.382-1.526,0.64-2.357,0.756c0.857-0.601,1.498-1.546,1.804-2.66
	c-0.805,0.56-1.687,0.955-2.606,1.166c-0.618-0.773-1.437-1.285-2.329-1.458c-0.892-0.172-1.807,0.005-2.604,0.505
	s-1.431,1.294-1.803,2.259c-0.373,0.965-0.462,2.047-0.256,3.078c-1.632-0.096-3.228-0.593-4.685-1.458s-2.742-2.08-3.773-3.565
	c-0.352,0.712-0.555,1.537-0.555,2.417c0,0.791,0.166,1.571,0.484,2.269s0.779,1.293,1.341,1.733
	c-0.652-0.024-1.289-0.231-1.859-0.602v0.062c0,1.11,0.328,2.186,0.928,3.045s1.435,1.449,2.364,1.669
	c-0.604,0.192-1.238,0.22-1.853,0.083c0.262,0.955,0.772,1.79,1.46,2.389c0.687,0.598,1.517,0.93,2.373,0.948
	c-1.453,1.337-3.248,2.062-5.096,2.059c-0.327,0-0.654-0.022-0.979-0.067c1.876,1.413,4.059,2.163,6.289,2.16
	c7.549,0,11.675-7.324,11.675-13.676c0-0.206-0.004-0.415-0.012-0.621c0.802-0.68,1.496-1.522,2.046-2.487L583.087,35.252
	L583.087,35.252z"/>
<path fill="#968E8E" d="M620.587,40.134c-0.113-0.428-0.334-0.815-0.639-1.12c-0.313-0.315-0.697-0.54-1.115-0.654
	c-1.565-0.437-7.834-0.437-7.834-0.437c-2.613-0.031-5.226,0.107-7.824,0.415c-0.418,0.123-0.801,0.353-1.115,0.67
	c-0.308,0.314-0.531,0.701-0.648,1.125c-0.281,1.598-0.417,3.22-0.407,4.846c-0.01,1.624,0.125,3.246,0.407,4.846
	c0.114,0.422,0.337,0.808,0.645,1.119c0.309,0.311,0.694,0.536,1.117,0.655c1.586,0.436,7.824,0.436,7.824,0.436
	c2.617,0.032,5.233-0.107,7.834-0.415c0.418-0.114,0.802-0.34,1.115-0.654c0.305-0.305,0.525-0.693,0.638-1.12
	c0.287-1.597,0.427-3.221,0.417-4.847C621.025,43.366,620.886,41.735,620.587,40.134L620.587,40.134z M609.007,47.999V41.96
	l5.216,3.02L609.007,47.999z"/>
<path fill="#968E8E" d="M502.488,32.992h-2.857c-1.263,0-2.474,0.502-3.367,1.395s-1.395,2.104-1.395,3.367v2.857h-2.857v3.809
	h2.857v7.619h3.809V44.42h2.857l0.952-3.809h-3.809v-2.857c0-0.253,0.1-0.495,0.279-0.673c0.179-0.179,0.421-0.279,0.673-0.279
	h2.857v-3.81H502.488z"/>
<path fill="#968E8E" d="M535.93,32h-9.625c-3.438,0-6.188,2.75-6.188,6.188v9.625c0,3.438,2.75,6.188,6.188,6.188h9.625
	c3.438,0,6.188-2.75,6.188-6.188v-9.625C542.118,34.75,539.368,32,535.93,32z M528.368,49.188c0,0.412-0.275,0.688-0.688,0.688
	h-2.75c-0.412,0-0.688-0.275-0.688-0.688v-8.25c0-0.412,0.275-0.688,0.688-0.688h2.75c0.412,0,0.688,0.275,0.688,0.688V49.188z
	 M526.305,39.563c-1.169,0-2.063-0.894-2.063-2.063s0.894-2.063,2.063-2.063s2.063,0.894,2.063,2.063S527.474,39.563,526.305,39.563
	z M537.993,49.188c0,0.412-0.275,0.688-0.688,0.688h-2.063c-0.412,0-0.688-0.275-0.688-0.688v-2.406v-0.688v-1.375
	c0-0.55-0.481-1.031-1.031-1.031s-1.031,0.481-1.031,1.031v1.375v0.688v2.406c0,0.412-0.275,0.688-0.688,0.688h-2.063
	c-0.412,0-0.688-0.275-0.688-0.688v-8.25c0-0.412,0.275-0.688,0.688-0.688h2.75c0.206,0,0.344,0.069,0.481,0.206
	c0.412-0.138,0.825-0.206,1.237-0.206c2.063,0,3.781,1.719,3.781,3.781v5.157H537.993z"/>
<path fill="#0068FF" fill-opacity="0.6" d="M177.232,219.936c-6.624,0-12,5.376-12,12s5.376,12,12,12s12-5.376,12-12
	C189.232,225.312,183.855,219.936,177.232,219.936z M177.232,241.536c-5.304,0-9.6-4.296-9.6-9.6s4.296-9.6,9.6-9.6
	s9.6,4.296,9.6,9.6S182.536,241.536,177.232,241.536z"/>
<path fill="#0068FF" d="M216.358,217.936c-6.624,0-12,5.376-12,12s5.376,12,12,12s12-5.376,12-12S222.982,217.936,216.358,217.936z
	 M216.358,239.536c-5.304,0-9.6-4.296-9.6-9.6s4.296-9.6,9.6-9.6s9.6,4.296,9.6,9.6S221.662,239.536,216.358,239.536z"/>
<path fill="#0068FF" d="M216.358,235.936c3.314,0,6-2.686,6-6s-2.686-6-6-6s-6,2.686-6,6S213.044,235.936,216.358,235.936z"/>
<g>
	<g>
		<path shape-rendering="crispEdges" fill="#FFFFFF" fill-opacity="0.06" d="M234.585,173.139h-27.36c-2.386,0-4.32-1.934-4.32-4.32
			v-27.36c0-2.386,1.934-4.32,4.32-4.32h27.36c2.386,0,4.32,1.934,4.32,4.32v27.36C238.905,171.204,236.971,173.139,234.585,173.139
			z"/>
		<path shape-rendering="crispEdges" fill="none" stroke="#0068FF" d="M234.585,172.779h-27.36c-2.187,0-3.96-1.773-3.96-3.96
			v-27.36c0-2.187,1.773-3.96,3.96-3.96h27.36c2.187,0,3.96,1.773,3.96,3.96v27.36C238.545,171.006,236.772,172.779,234.585,172.779
			z"/>
	</g>
	<path fill="none" stroke="#0068FF" stroke-width="2" stroke-linecap="round" stroke-linejoin="round" d="M217.832,148.553
		l6.147,6.586l-6.147,6.586"/>
</g>
<g>
	<g>
		<path shape-rendering="crispEdges" fill="#FFFFFF" fill-opacity="0.06" d="M143.644,136.796h27.36c2.386,0,4.32,1.934,4.32,4.32
			v27.36c0,2.386-1.934,4.32-4.32,4.32h-27.36c-2.386,0-4.32-1.934-4.32-4.32v-27.36
			C139.324,138.73,141.258,136.796,143.644,136.796z"/>
		<path shape-rendering="crispEdges" fill="none" stroke="#0068FF" d="M143.644,137.156h27.36c2.187,0,3.96,1.773,3.96,3.96v27.36
			c0,2.187-1.773,3.96-3.96,3.96h-27.36c-2.187,0-3.96-1.773-3.96-3.96v-27.36C139.684,138.929,141.456,137.156,143.644,137.156z"/>
	</g>
	<path fill="none" stroke="#0068FF" stroke-width="2" stroke-linecap="round" stroke-linejoin="round" d="M160.397,161.382
		l-6.147-6.586l6.147-6.586"/>
</g>
<path fill="#968E8E" d="M1086.44,31.04c-5.669,0-10.265,4.596-10.265,10.265v4.188l-1.283,2.566v4.152h6.425
	c0.166,2.685,2.396,4.812,5.123,4.812s4.957-2.126,5.123-4.812h6.425v-4.152l-1.283-2.566v-4.188
	C1096.705,35.636,1092.109,31.04,1086.44,31.04z M1088.986,52.212h-5.093c0.158,1.266,1.238,2.245,2.546,2.245
	C1087.749,54.457,1088.828,53.478,1088.986,52.212z M1078.741,41.305c0-4.252,3.447-7.699,7.699-7.699s7.699,3.447,7.699,7.699
	v4.794l1.283,2.566v0.98h-17.964v-0.98l1.283-2.566L1078.741,41.305L1078.741,41.305z"/>
<path fill="#0068FF" d="M1124.94,31.04c-5.669,0-10.265,4.596-10.265,10.265v4.188l-1.283,2.566v4.152h6.425
	c0.166,2.685,2.396,4.812,5.123,4.812s4.957-2.126,5.123-4.812h6.425v-4.152l-1.283-2.566v-4.188
	C1135.205,35.636,1130.609,31.04,1124.94,31.04z M1127.486,52.212h-5.093c0.158,1.266,1.238,2.245,2.546,2.245
	C1126.249,54.457,1127.328,53.478,1127.486,52.212z M1117.241,41.305c0-4.252,3.447-7.699,7.699-7.699s7.699,3.447,7.699,7.699
	v4.794l1.283,2.566v0.98h-17.964v-0.98l1.283-2.566L1117.241,41.305L1117.241,41.305z"/>
<path fill="#845995" d="M256.999,226.091c-0.113-0.428-0.334-0.815-0.639-1.12c-0.313-0.315-0.697-0.54-1.115-0.654
	c-1.565-0.437-7.834-0.437-7.834-0.437c-2.613-0.031-5.226,0.107-7.824,0.415c-0.418,0.123-0.801,0.353-1.115,0.67
	c-0.308,0.314-0.531,0.701-0.648,1.125c-0.281,1.598-0.417,3.22-0.407,4.846c-0.01,1.624,0.125,3.246,0.407,4.846
	c0.114,0.422,0.337,0.808,0.645,1.119c0.309,0.311,0.694,0.536,1.117,0.655c1.586,0.436,7.824,0.436,7.824,0.436
	c2.617,0.032,5.233-0.107,7.834-0.415c0.418-0.114,0.802-0.34,1.115-0.654c0.305-0.305,0.525-0.693,0.638-1.12
	c0.287-1.597,0.427-3.221,0.417-4.847C257.438,229.323,257.298,227.692,256.999,226.091L256.999,226.091z M245.42,233.956v-6.039
	l5.216,3.02L245.42,233.956z"/>
<g>
	<path fill="none" stroke="#666666" stroke-width="2" stroke-linecap="round" stroke-linejoin="round" d="M693.826,156.707
		c0.69,0,1.25-0.56,1.25-1.25s-0.56-1.25-1.25-1.25s-1.25,0.56-1.25,1.25S693.136,156.707,693.826,156.707z"/>
	<path fill="none" stroke="#666666" stroke-width="2" stroke-linecap="round" stroke-linejoin="round" d="M693.826,147.957
		c0.69,0,1.25-0.56,1.25-1.25s-0.56-1.25-1.25-1.25s-1.25,0.56-1.25,1.25C692.576,147.398,693.136,147.957,693.826,147.957z"/>
	<path fill="none" stroke="#666666" stroke-width="2" stroke-linecap="round" stroke-linejoin="round" d="M693.826,165.457
		c0.69,0,1.25-0.56,1.25-1.25s-0.56-1.25-1.25-1.25s-1.25,0.56-1.25,1.25S693.136,165.457,693.826,165.457z"/>
</g>
<path fill="#0068FF" d="M733.076,141.957h-4.05c-1.79,0-3.507,0.711-4.772,1.978c-1.266,1.266-1.978,2.982-1.978,4.772v4.05h-4.05
	v5.4h4.05v10.8h5.4v-10.8h4.05l1.35-5.4h-5.4v-4.05c0-0.358,0.142-0.701,0.396-0.954c0.252-0.252,0.597-0.396,0.954-0.396h4.05
	L733.076,141.957L733.076,141.957z"/>
<path fill="#0068FF" d="M781.489,145.651c-0.994,0.516-2.06,0.864-3.182,1.021c1.157-0.811,2.022-2.087,2.435-3.591
	c-1.087,0.756-2.277,1.289-3.518,1.574c-0.834-1.044-1.94-1.735-3.144-1.968c-1.204-0.232-2.439,0.007-3.515,0.682
	s-1.932,1.747-2.434,3.049c-0.503,1.303-0.624,2.763-0.346,4.155c-2.203-0.13-4.358-0.801-6.324-1.968s-3.702-2.808-5.093-4.813
	c-0.475,0.961-0.749,2.075-0.749,3.263c0,1.068,0.224,2.121,0.653,3.063s1.052,1.745,1.81,2.339c-0.88-0.032-1.74-0.312-2.51-0.813
	v0.084c0,1.498,0.443,2.951,1.253,4.111c0.81,1.16,1.937,1.956,3.191,2.253c-0.815,0.259-1.671,0.297-2.501,0.112
	c0.354,1.289,1.042,2.416,1.971,3.225c0.927,0.807,2.048,1.255,3.203,1.28c-1.961,1.805-4.385,2.784-6.879,2.78
	c-0.441,0-0.883-0.03-1.322-0.09c2.532,1.907,5.479,2.92,8.49,2.916c10.191,0,15.76-9.887,15.76-18.462
	c0-0.278-0.005-0.56-0.016-0.838c1.083-0.918,2.019-2.055,2.762-3.357L781.489,145.651L781.489,145.651z"/>
<path fill="#0068FF" d="M824.573,141.957h-11.812c-4.219,0-7.594,3.375-7.594,7.594v11.812c0,4.219,3.375,7.594,7.594,7.594h11.812
	c4.219,0,7.594-3.375,7.594-7.594v-11.812C832.167,145.332,828.792,141.957,824.573,141.957z M815.293,163.051
	c0,0.506-0.338,0.844-0.844,0.844h-3.375c-0.506,0-0.844-0.337-0.844-0.844v-10.125c0-0.506,0.338-0.844,0.844-0.844h3.375
	c0.506,0,0.844,0.337,0.844,0.844V163.051z M812.761,151.239c-1.435,0-2.532-1.097-2.532-2.532s1.097-2.532,2.532-2.532
	s2.532,1.097,2.532,2.532S814.196,151.239,812.761,151.239z M827.105,163.051c0,0.506-0.338,0.844-0.844,0.844h-2.532
	c-0.506,0-0.844-0.337-0.844-0.844v-2.953v-0.844v-1.687c0-0.675-0.59-1.265-1.265-1.265s-1.265,0.59-1.265,1.265v1.687v0.844v2.953
	c0,0.506-0.338,0.844-0.844,0.844h-2.532c-0.506,0-0.844-0.337-0.844-0.844v-10.125c0-0.506,0.337-0.844,0.844-0.844h3.375
	c0.253,0,0.422,0.085,0.59,0.253c0.506-0.169,1.012-0.253,1.518-0.253c2.532,0,4.64,2.11,4.64,4.64v6.329H827.105z"/>
<g>
	<circle fill="#666666" cx="868.336" cy="155.458" r="16"/>
	<path fill="#FFFFFF" d="M868.336,159.519c0.923,0,1.708-0.322,2.354-0.969s0.969-1.431,0.969-2.354s-0.323-1.708-0.969-2.354
		c-0.646-0.646-1.431-0.969-2.354-0.969s-1.708,0.322-2.354,0.969s-0.969,1.431-0.969,2.354s0.323,1.708,0.969,2.354
		C866.627,159.196,867.412,159.519,868.336,159.519z M868.336,158.042c-0.517,0-0.954-0.178-1.311-0.535
		c-0.357-0.357-0.535-0.794-0.535-1.311s0.178-0.954,0.535-1.311c0.357-0.357,0.794-0.535,1.311-0.535s0.954,0.178,1.311,0.535
		c0.357,0.357,0.535,0.794,0.535,1.311s-0.178,0.954-0.535,1.311C869.289,157.864,868.852,158.042,868.336,158.042z
		 M862.428,162.104c-0.406,0-0.753-0.144-1.042-0.433s-0.435-0.638-0.435-1.044v-8.862c0-0.406,0.145-0.753,0.435-1.042
		c0.289-0.289,0.636-0.434,1.042-0.434h2.326l1.366-1.477h4.431l1.366,1.477h2.326c0.406,0,0.754,0.145,1.044,0.434
		c0.289,0.289,0.433,0.636,0.433,1.042v8.862c0,0.406-0.144,0.754-0.433,1.044c-0.289,0.289-0.638,0.433-1.044,0.433H862.428z
		 M874.243,160.627v-8.862h-2.991l-1.348-1.477h-3.138l-1.348,1.477h-2.991v8.862H874.243z"/>
</g>
<g>
	<circle fill="#666666" cx="916.966" cy="155.458" r="16"/>
	<path fill="#FFFFFF" d="M916.966,159.519c0.923,0,1.708-0.322,2.354-0.969c0.646-0.646,0.969-1.431,0.969-2.354
		s-0.323-1.708-0.969-2.354c-0.646-0.646-1.431-0.969-2.354-0.969s-1.708,0.322-2.354,0.969c-0.646,0.646-0.969,1.431-0.969,2.354
		s0.323,1.708,0.969,2.354C915.258,159.196,916.043,159.519,916.966,159.519z M916.966,158.042c-0.517,0-0.954-0.178-1.311-0.535
		c-0.357-0.357-0.535-0.794-0.535-1.311s0.178-0.954,0.535-1.311c0.357-0.357,0.794-0.535,1.311-0.535s0.954,0.178,1.311,0.535
		c0.357,0.357,0.535,0.794,0.535,1.311s-0.178,0.954-0.535,1.311C917.92,157.864,917.483,158.042,916.966,158.042z M911.059,162.104
		c-0.406,0-0.753-0.144-1.042-0.433s-0.435-0.638-0.435-1.044v-8.862c0-0.406,0.145-0.753,0.435-1.042
		c0.289-0.289,0.636-0.434,1.042-0.434h2.326l1.366-1.477h4.431l1.366,1.477h2.326c0.406,0,0.754,0.145,1.044,0.434
		c0.289,0.289,0.433,0.636,0.433,1.042v8.862c0,0.406-0.144,0.754-0.433,1.044c-0.289,0.289-0.638,0.433-1.044,0.433H911.059z
		 M922.874,160.627v-8.862h-2.991l-1.348-1.477h-3.138l-1.348,1.477h-2.991v8.862H922.874z"/>
</g>
<path fill="#0068FF" d="M182.677,267.244c0.651,0,1.275,0.259,1.736,0.719c0.46,0.46,0.719,1.085,0.719,1.736
	s-0.259,1.275-0.719,1.736c-0.46,0.46-1.085,0.719-1.736,0.719s-1.275-0.259-1.736-0.719c-0.46-0.46-0.719-1.085-0.719-1.736
	s0.259-1.275,0.719-1.736C181.402,267.502,182.026,267.244,182.677,267.244z M182.677,263.562c4.091,0,7.585,2.545,9,6.136
	c-1.415,3.592-4.909,6.136-9,6.136s-7.585-2.545-9-6.136C175.092,266.106,178.586,263.562,182.677,263.562z M175.461,269.698
	c0.661,1.35,1.688,2.488,2.964,3.284s2.749,1.217,4.253,1.217c1.504,0,2.977-0.422,4.253-1.217c1.276-0.796,2.303-1.933,2.964-3.284
	c-0.661-1.35-1.688-2.488-2.964-3.284s-2.749-1.217-4.253-1.217c-1.503,0-2.977,0.422-4.253,1.217
	C177.149,267.21,176.122,268.348,175.461,269.698z"/>
<path fill="#2EB85C" d="M207.938,275.774c0.199,0,0.385-0.031,0.56-0.093c0.175-0.063,0.336-0.169,0.485-0.318l8.473-8.473
	c0.273-0.273,0.411-0.609,0.411-1.008s-0.149-0.747-0.448-1.045c-0.273-0.273-0.623-0.411-1.045-0.411
	c-0.423,0-0.772,0.137-1.045,0.411l-7.39,7.391l-3.247-3.247c-0.273-0.273-0.609-0.411-1.008-0.411s-0.747,0.149-1.045,0.448
	c-0.273,0.273-0.411,0.623-0.411,1.045c0,0.423,0.137,0.772,0.411,1.045l4.255,4.255c0.149,0.149,0.311,0.255,0.485,0.318
	C207.551,275.744,207.738,275.774,207.938,275.774z"/>
<g>
	<path fill="#8247E5" d="M246.517,267.165c-0.292-0.167-0.668-0.167-1.002,0l-2.338,1.378l-1.586,0.877l-2.296,1.378
		c-0.292,0.167-0.668,0.167-1.002,0l-1.795-1.085c-0.292-0.167-0.501-0.501-0.501-0.877v-2.087c0-0.334,0.167-0.668,0.501-0.877
		l1.795-1.044c0.292-0.167,0.668-0.167,1.002,0l1.795,1.085c0.292,0.167,0.501,0.501,0.501,0.877v1.378l1.586-0.918v-1.419
		c0-0.334-0.167-0.668-0.501-0.877l-3.34-1.962c-0.292-0.167-0.668-0.167-1.002,0l-3.423,2.004
		c-0.334,0.167-0.501,0.501-0.501,0.835v3.924c0,0.334,0.167,0.668,0.501,0.877l3.382,1.962c0.292,0.167,0.668,0.167,1.002,0
		l2.296-1.336l1.586-0.918l2.296-1.336c0.292-0.167,0.668-0.167,1.002,0l1.795,1.044c0.292,0.167,0.501,0.501,0.501,0.877v2.087
		c0,0.334-0.167,0.668-0.501,0.877l-1.753,1.044c-0.292,0.167-0.668,0.167-1.002,0l-1.795-1.044
		c-0.292-0.167-0.501-0.501-0.501-0.877v-1.336l-1.586,0.918v1.378c0,0.334,0.167,0.668,0.501,0.877l3.382,1.962
		c0.292,0.167,0.668,0.167,1.002,0l3.382-1.962c0.292-0.167,0.501-0.501,0.501-0.877v-3.966c0-0.334-0.167-0.668-0.501-0.877
		L246.517,267.165z"/>
</g>
<path fill="#FFFFFF" d="M755.946,102.817v0.877c0,0.465-0.185,0.912-0.514,1.241c-0.329,0.329-0.775,0.514-1.241,0.514h-12.283
	c-0.465,0-0.912-0.185-1.241-0.514c-0.329-0.329-0.514-0.775-0.514-1.241V91.411c0-0.465,0.185-0.912,0.514-1.241
	c0.329-0.329,0.775-0.514,1.241-0.514h12.283c0.465,0,0.912,0.185,1.241,0.514c0.329,0.329,0.514,0.775,0.514,1.241v0.877h-7.896
	c-0.465,0-0.912,0.185-1.241,0.514c-0.329,0.329-0.514,0.775-0.514,1.241v7.019c0,0.465,0.185,0.912,0.514,1.241
	c0.329,0.329,0.775,0.514,1.241,0.514 M748.05,101.063h8.774v-7.019h-8.774 M751.559,98.869c-0.349,0-0.684-0.139-0.931-0.385
	c-0.247-0.247-0.385-0.582-0.385-0.931s0.139-0.684,0.385-0.931c0.247-0.247,0.582-0.385,0.931-0.385s0.684,0.139,0.931,0.385
	c0.247,0.247,0.385,0.582,0.385,0.931s-0.139,0.684-0.385,0.931C752.243,98.731,751.908,98.869,751.559,98.869z"/>
<path fill="#666666" d="M835.405,88.336c0.401,0.401,0.602,0.888,0.602,1.461v11.516c0,0.573-0.201,1.06-0.602,1.461
	s-0.888,0.602-1.461,0.602h-3.438v2.063c0,0.573-0.201,1.06-0.602,1.461s-0.888,0.602-1.461,0.602h-9.625
	c-0.573,0-1.06-0.201-1.461-0.602s-0.602-0.888-0.602-1.461v-13.75c0-0.573,0.201-1.06,0.602-1.461s0.888-0.602,1.461-0.602h3.438
	v-2.063c0-0.573,0.201-1.06,0.602-1.461s0.888-0.602,1.461-0.602h7.391c0.573,0,1.06,0.201,1.461,0.602L835.405,88.336z
	 M831.882,86.875v2.75h2.75c-0.057-0.115-0.129-0.215-0.215-0.301l-2.234-2.234C832.097,87.004,831.996,86.932,831.882,86.875z
	 M829.132,105.437v-2.063h-4.813c-0.573,0-1.06-0.201-1.461-0.602s-0.602-0.888-0.602-1.461V91h-3.438
	c-0.201,0-0.372,0.072-0.516,0.215c-0.115,0.115-0.172,0.272-0.172,0.473v13.75c0,0.201,0.057,0.358,0.172,0.473
	c0.143,0.143,0.315,0.215,0.516,0.215h9.625c0.201,0,0.358-0.072,0.473-0.215C829.06,105.796,829.132,105.638,829.132,105.437z
	 M834.632,101.312V91h-3.094c-0.286,0-0.53-0.1-0.73-0.301c-0.201-0.201-0.301-0.444-0.301-0.73v-3.094h-6.188
	c-0.201,0-0.372,0.072-0.516,0.215c-0.115,0.115-0.172,0.272-0.172,0.473v13.75c0,0.201,0.057,0.372,0.172,0.516
	c0.143,0.115,0.315,0.172,0.516,0.172h9.625c0.201,0,0.358-0.057,0.473-0.172C834.56,101.685,834.632,101.513,834.632,101.312z"/>
<path fill="#FFFFFF" d="M902.535,105.869l-1.9-1.999l7.6-7.998l-7.6-7.998l1.9-1.999l7.6,7.998l7.6-7.998l1.9,1.999l-7.6,7.998
	l7.6,7.998l-1.9,1.999l-7.6-7.998L902.535,105.869z"/>
<g>
	<g>
		<path shape-rendering="crispEdges" fill="#FFFFFF" fill-opacity="0.06" d="M110.205,172.967h-27.36c-2.386,0-4.32-1.934-4.32-4.32
			v-27.36c0-2.386,1.934-4.32,4.32-4.32h27.36c2.386,0,4.32,1.934,4.32,4.32v27.36C114.525,171.033,112.592,172.967,110.205,172.967
			z"/>
		<path shape-rendering="crispEdges" fill="none" stroke="#666666" d="M110.205,172.607h-27.36c-2.187,0-3.96-1.773-3.96-3.96
			v-27.36c0-2.187,1.773-3.96,3.96-3.96h27.36c2.187,0,3.96,1.773,3.96,3.96v27.36C114.165,170.834,112.392,172.607,110.205,172.607
			z"/>
	</g>
	<path fill="none" stroke="#666666" stroke-width="2" stroke-linecap="round" stroke-linejoin="round" d="M93.453,148.382
		l6.147,6.586l-6.147,6.586"/>
</g>
<g>
	<g>
		<path shape-rendering="crispEdges" fill="#FFFFFF" fill-opacity="0.06" d="M22.265,136.625h27.36c2.386,0,4.32,1.934,4.32,4.32
			v27.36c0,2.386-1.934,4.32-4.32,4.32h-27.36c-2.386,0-4.32-1.934-4.32-4.32v-27.36C17.945,138.558,19.878,136.625,22.265,136.625z
			"/>
		<path shape-rendering="crispEdges" fill="none" stroke="#666666" d="M22.265,136.984h27.36c2.187,0,3.96,1.773,3.96,3.96v27.36
			c0,2.187-1.773,3.96-3.96,3.96h-27.36c-2.187,0-3.96-1.773-3.96-3.96v-27.36C18.305,138.758,20.077,136.984,22.265,136.984z"/>
	</g>
	<path fill="none" stroke="#666666" stroke-width="2" stroke-linecap="round" stroke-linejoin="round" d="M39.017,161.21
		l-6.147-6.586l6.147-6.586"/>
</g>
<path d="M863.12,102.872l-1.4-1.4l5.6-5.6l-5.6-5.6l1.4-1.4l5.6,5.6l5.6-5.6l1.4,1.4l-5.6,5.6l5.6,5.6l-1.4,1.4l-5.6-5.6
	L863.12,102.872z"/>
<g>
	<path fill="#0068FF" d="M968.876,87.235c-1.166,0-2.283,0.463-3.107,1.287c-0.824,0.825-1.287,1.942-1.287,3.106
		s0.463,2.283,1.287,3.106c0.824,0.824,1.942,1.287,3.107,1.287c1.166,0,2.283-0.463,3.107-1.287
		c0.824-0.824,1.287-1.942,1.287-3.106s-0.463-2.283-1.287-3.106C971.159,87.697,970.042,87.235,968.876,87.235z M968.876,96.901
		c-2.104,0-4.02,0.61-5.429,1.469c-0.703,0.43-1.304,0.936-1.738,1.485c-0.428,0.542-0.742,1.188-0.742,1.88
		c0,0.743,0.361,1.328,0.882,1.745c0.492,0.395,1.142,0.657,1.832,0.84c1.387,0.367,3.238,0.49,5.196,0.49
		c0.202,0,0.405-0.002,0.602-0.005c0.147-0.002,0.292-0.041,0.42-0.113s0.237-0.176,0.314-0.3c0.078-0.124,0.123-0.267,0.131-0.414
		c0.009-0.147-0.02-0.294-0.084-0.427c-0.334-0.705-0.506-1.475-0.505-2.255c0-1.1,0.336-2.119,0.911-2.964
		c0.086-0.125,0.137-0.271,0.149-0.422c0.012-0.151-0.014-0.303-0.078-0.441c-0.064-0.138-0.162-0.256-0.285-0.345
		c-0.123-0.088-0.268-0.143-0.418-0.16C969.656,96.922,969.269,96.901,968.876,96.901z M978.286,99.596
		c0.161-0.165,0.249-0.388,0.247-0.618c-0.002-0.231-0.094-0.451-0.257-0.614c-0.162-0.162-0.383-0.256-0.614-0.257
		s-0.452,0.086-0.618,0.247l-2.796,2.796l-1.243-1.243c-0.165-0.161-0.388-0.249-0.618-0.247c-0.23,0.002-0.45,0.094-0.614,0.257
		c-0.163,0.163-0.256,0.383-0.257,0.614s0.086,0.452,0.247,0.618l1.801,1.801c0.09,0.09,0.197,0.161,0.313,0.21
		c0.117,0.048,0.243,0.074,0.371,0.074s0.253-0.025,0.37-0.074c0.117-0.048,0.224-0.12,0.314-0.21L978.286,99.596z"/>
</g>
<g>
	<path fill="#1E1E1E" d="M950.819,101.644h-2.525v2.525c0,0.277-0.227,0.505-0.505,0.505s-0.504-0.227-0.504-0.505v-2.525h-2.525
		c-0.277,0-0.504-0.227-0.504-0.505s0.227-0.505,0.504-0.505h2.525v-2.525c0-0.277,0.227-0.505,0.504-0.505
		c0.277,0,0.505,0.227,0.505,0.505v2.525h2.525c0.277,0,0.505,0.227,0.505,0.505S951.097,101.644,950.819,101.644z"/>
	<defs>
		<filter id="Adobe_OpacityMaskFilter" filterUnits="userSpaceOnUse" x="942.929" y="96.279" width="9.721" height="9.721">
			<feColorMatrix  type="matrix" values="1 0 0 0 0  0 1 0 0 0  0 0 1 0 0  0 0 0 1 0"/>
		</filter>
	</defs>
	<mask maskUnits="userSpaceOnUse" x="942.929" y="96.279" width="9.721" height="9.721" id="path-1-inside-1_652_6772_1_">
		<path fill="#FFFFFF" filter="url(#Adobe_OpacityMaskFilter)" d="M950.819,101.644h-2.525v2.525c0,0.277-0.227,0.505-0.505,0.505
			s-0.504-0.227-0.504-0.505v-2.525h-2.525c-0.277,0-0.504-0.227-0.504-0.505s0.227-0.505,0.504-0.505h2.525v-2.525
			c0-0.277,0.227-0.505,0.504-0.505c0.277,0,0.505,0.227,0.505,0.505v2.525h2.525c0.277,0,0.505,0.227,0.505,0.505
			S951.097,101.644,950.819,101.644z"/>
	</mask>
	<path mask="url(#path-1-inside-1_652_6772_1_)" fill="#1E1E1E" d="M948.294,101.644v-1.325h-1.325v1.325H948.294z M947.284,101.644
		h1.325v-1.325h-1.325V101.644z M947.284,100.634v1.325h1.325v-1.325H947.284z M948.294,100.634h-1.325v1.325h1.325V100.634z
		 M950.819,100.319h-2.525v2.651h2.525V100.319z M946.969,101.644v2.525h2.651v-2.525H946.969z M946.969,104.169
		c0-0.454,0.367-0.821,0.821-0.821V106c1.01,0,1.831-0.821,1.831-1.831H946.969z M947.79,103.349c0.454,0,0.821,0.366,0.821,0.821
		h-2.651c0,1.01,0.821,1.831,1.831,1.831V103.349z M948.61,104.169v-2.525h-2.651v2.525H948.61z M947.284,100.319h-2.525v2.651
		h2.525V100.319z M944.759,100.319c0.454,0,0.821,0.367,0.821,0.821h-2.651c0,1.01,0.821,1.831,1.831,1.831V100.319z M945.58,101.14
		c0,0.454-0.366,0.821-0.821,0.821v-2.651c-1.01,0-1.831,0.821-1.831,1.831H945.58z M944.759,101.961h2.525v-2.651h-2.525V101.961z
		 M948.61,100.634v-2.525h-2.651v2.525H948.61z M948.61,98.109c0,0.454-0.367,0.821-0.821,0.821v-2.651
		c-1.01,0-1.831,0.821-1.831,1.831H948.61z M947.79,98.93c-0.454,0-0.821-0.366-0.821-0.821h2.651c0-1.01-0.821-1.831-1.831-1.831
		V98.93z M946.969,98.109v2.525h2.651v-2.525H946.969z M948.294,101.961h2.525v-2.651h-2.525V101.961z M950.819,101.961
		c-0.454,0-0.821-0.367-0.821-0.821h2.651c0-1.01-0.821-1.831-1.831-1.831V101.961z M949.999,101.14
		c0-0.454,0.366-0.821,0.821-0.821v2.651c1.01,0,1.831-0.821,1.831-1.831H949.999z"/>
	<path fill="#1E1E1E" d="M941.604,87c-1.172,0-2.296,0.465-3.125,1.294c-0.828,0.828-1.294,1.952-1.294,3.125
		s0.466,2.296,1.294,3.125c0.828,0.828,1.952,1.294,3.125,1.294s2.296-0.465,3.125-1.294c0.828-0.828,1.294-1.952,1.294-3.125
		s-0.465-2.296-1.294-3.125S942.776,87,941.604,87z M941.604,96.721c-2.117,0-4.043,0.614-5.46,1.476
		c-0.707,0.433-1.311,0.941-1.748,1.493c-0.429,0.544-0.746,1.195-0.746,1.891c0,0.747,0.363,1.336,0.886,1.755
		c0.495,0.398,1.148,0.661,1.842,0.845c1.395,0.369,3.256,0.493,5.225,0.493c0.203,0,0.407-0.002,0.605-0.005
		c0.148-0.002,0.294-0.041,0.422-0.114c0.129-0.073,0.237-0.177,0.315-0.302s0.123-0.269,0.132-0.417
		c0.009-0.148-0.02-0.295-0.084-0.429c-0.336-0.709-0.509-1.484-0.508-2.269c0-1.107,0.338-2.132,0.917-2.981
		c0.086-0.126,0.138-0.273,0.15-0.425c0.012-0.152-0.014-0.305-0.079-0.444c-0.064-0.139-0.163-0.258-0.287-0.347
		c-0.124-0.088-0.269-0.144-0.421-0.161C942.387,96.742,941.999,96.721,941.604,96.721z"/>
</g>
<path fill="#FFFFFF" d="M791.135,92.553h-1v-1c0-0.796-0.316-1.559-0.879-2.121c-0.563-0.563-1.326-0.879-2.121-0.879h-10
	c-0.796,0-1.559,0.316-2.121,0.879c-0.563,0.563-0.879,1.326-0.879,2.121v12c0,0.796,0.316,1.559,0.879,2.121
	c0.563,0.562,1.326,0.879,2.121,0.879h14c0.796,0,1.559-0.316,2.121-0.879c0.562-0.563,0.879-1.326,0.879-2.121v-8
	c0-0.796-0.316-1.559-0.879-2.121C792.693,92.869,791.93,92.553,791.135,92.553z M777.135,90.553h10c0.265,0,0.52,0.105,0.707,0.293
	c0.188,0.188,0.293,0.442,0.293,0.707v1h-11c-0.265,0-0.52-0.105-0.707-0.293c-0.188-0.188-0.293-0.442-0.293-0.707
	s0.105-0.52,0.293-0.707C776.615,90.658,776.87,90.553,777.135,90.553z M792.135,100.553h-1c-0.265,0-0.52-0.105-0.707-0.293
	s-0.293-0.442-0.293-0.707s0.105-0.52,0.293-0.707s0.442-0.293,0.707-0.293h1V100.553z M792.135,96.553h-1
	c-0.796,0-1.559,0.316-2.121,0.879c-0.563,0.563-0.879,1.326-0.879,2.121s0.316,1.559,0.879,2.121
	c0.563,0.563,1.326,0.879,2.121,0.879h1v1c0,0.265-0.105,0.52-0.293,0.707s-0.442,0.293-0.707,0.293h-14
	c-0.265,0-0.52-0.105-0.707-0.293c-0.188-0.188-0.293-0.442-0.293-0.707v-9.17c0.321,0.113,0.659,0.171,1,0.17h14
	c0.265,0,0.52,0.105,0.707,0.293c0.188,0.188,0.293,0.442,0.293,0.707V96.553z"/>
<path d="M1050.107,92.661h-1v-1c0-0.796-0.316-1.559-0.879-2.121c-0.563-0.563-1.326-0.879-2.121-0.879h-10
	c-0.796,0-1.559,0.316-2.121,0.879c-0.563,0.563-0.879,1.326-0.879,2.121v12c0,0.796,0.316,1.559,0.879,2.121
	s1.326,0.879,2.121,0.879h14c0.796,0,1.559-0.316,2.121-0.879s0.879-1.326,0.879-2.121v-8c0-0.796-0.316-1.559-0.879-2.121
	C1051.665,92.977,1050.902,92.661,1050.107,92.661z M1036.106,90.661h10c0.265,0,0.52,0.105,0.707,0.293
	c0.188,0.188,0.293,0.442,0.293,0.707v1h-11c-0.265,0-0.52-0.105-0.707-0.293c-0.188-0.188-0.293-0.442-0.293-0.707
	s0.105-0.52,0.293-0.707C1035.587,90.766,1035.841,90.661,1036.106,90.661z M1051.106,100.661h-1c-0.265,0-0.52-0.105-0.707-0.293
	s-0.293-0.442-0.293-0.707s0.105-0.52,0.293-0.707s0.442-0.293,0.707-0.293h1V100.661z M1051.106,96.661h-1
	c-0.796,0-1.559,0.316-2.121,0.879c-0.563,0.563-0.879,1.326-0.879,2.121s0.316,1.559,0.879,2.121
	c0.563,0.563,1.326,0.879,2.121,0.879h1v1c0,0.265-0.105,0.52-0.293,0.707c-0.188,0.187-0.442,0.293-0.707,0.293h-14
	c-0.265,0-0.52-0.105-0.707-0.293c-0.188-0.188-0.293-0.442-0.293-0.707v-9.17c0.321,0.113,0.659,0.171,1,0.17h14
	c0.265,0,0.52,0.105,0.707,0.293c0.188,0.188,0.293,0.442,0.293,0.707V96.661z"/>
<path fill="#0068FF" d="M1011.136,92.553h-1v-1c0-0.796-0.316-1.559-0.879-2.121c-0.563-0.563-1.326-0.879-2.121-0.879h-10
	c-0.796,0-1.559,0.316-2.121,0.879c-0.563,0.563-0.879,1.326-0.879,2.121v12c0,0.796,0.316,1.559,0.879,2.121
	s1.326,0.879,2.121,0.879h14c0.796,0,1.559-0.316,2.121-0.879s0.879-1.326,0.879-2.121v-8c0-0.796-0.316-1.559-0.879-2.121
	C1012.695,92.869,1011.932,92.553,1011.136,92.553z M997.135,90.553h10c0.265,0,0.52,0.105,0.707,0.293
	c0.188,0.188,0.293,0.442,0.293,0.707v1h-11c-0.265,0-0.52-0.105-0.707-0.293c-0.188-0.188-0.293-0.442-0.293-0.707
	s0.105-0.52,0.293-0.707C996.617,90.658,996.87,90.553,997.135,90.553z M1012.135,100.553h-1c-0.265,0-0.52-0.105-0.707-0.293
	c-0.187-0.188-0.293-0.442-0.293-0.707s0.105-0.52,0.293-0.707c0.188-0.187,0.442-0.293,0.707-0.293h1V100.553z M1012.135,96.553h-1
	c-0.796,0-1.559,0.316-2.121,0.879c-0.563,0.563-0.879,1.326-0.879,2.121s0.316,1.559,0.879,2.121
	c0.563,0.563,1.326,0.879,2.121,0.879h1v1c0,0.265-0.105,0.52-0.293,0.707c-0.188,0.187-0.442,0.293-0.707,0.293h-14
	c-0.265,0-0.52-0.105-0.707-0.293c-0.188-0.188-0.293-0.442-0.293-0.707v-9.17c0.321,0.113,0.659,0.171,1,0.17h14
	c0.265,0,0.52,0.105,0.707,0.293c0.188,0.188,0.293,0.442,0.293,0.707V96.553z"/>
<path fill="#0068FF" d="M969.89,144.79c0,0.293-0.107,0.547-0.322,0.762c-0.214,0.214-0.468,0.322-0.762,0.322
	s-0.547-0.107-0.762-0.322c-0.214-0.214-0.322-0.468-0.322-0.762c0-0.293,0.107-0.547,0.322-0.762
	c0.214-0.214,0.468-0.322,0.762-0.322s0.547,0.107,0.762,0.322C969.783,144.243,969.89,144.497,969.89,144.79z M972.057,157.722
	c0,2.133-0.942,3.199-2.827,3.199c-0.293,0-0.609-0.028-0.948-0.085c-0.181,0.339-0.477,0.606-0.889,0.804s-0.827,0.296-1.244,0.296
	c-0.418,0-0.807-0.102-1.168-0.305c-0.564,0.598-1.236,0.897-2.014,0.897c-0.282,0-0.595-0.056-0.939-0.169
	s-0.612-0.254-0.804-0.423v5.603c0,0.587-0.214,1.095-0.643,1.523s-0.937,0.643-1.523,0.643c-0.576,0-1.08-0.22-1.515-0.66
	c-0.434-0.44-0.652-0.942-0.652-1.506v-9.75c-0.226,0-0.499,0.085-0.821,0.254s-0.632,0.355-0.931,0.559
	c-0.299,0.203-0.683,0.389-1.151,0.559c-0.468,0.169-0.945,0.254-1.43,0.254c-0.756,0-1.306-0.251-1.65-0.753
	s-0.516-1.154-0.516-1.955c0-0.271,0.784-0.779,2.353-1.523c0.497-0.271,0.863-0.48,1.1-0.626c0.722-0.451,1.54-1.083,2.454-1.896
	c0.914-0.801,1.512-1.371,1.794-1.71c0.643-0.779,0.965-1.569,0.965-2.37v-0.542h10.833v0.542c0,0.812,0.181,1.755,0.542,2.827
	c0.361,1.072,0.722,2.164,1.083,3.275C971.877,155.795,972.057,156.808,972.057,157.722z M974.223,157.807
	c0-1.501-0.389-3.318-1.168-5.45c-0.666-1.851-0.999-3.109-0.999-3.775v-4.875c0-0.598-0.212-1.109-0.635-1.532
	c-0.423-0.423-0.934-0.635-1.532-0.635h-10.833c-0.598,0-1.109,0.212-1.532,0.635c-0.423,0.423-0.635,0.934-0.635,1.532v4.875
	c0,0.113-0.025,0.234-0.076,0.364c-0.051,0.13-0.13,0.262-0.237,0.398c-0.107,0.135-0.209,0.262-0.305,0.381
	c-0.096,0.118-0.223,0.254-0.381,0.406c-0.158,0.152-0.279,0.268-0.364,0.347s-0.206,0.186-0.364,0.322
	c-0.158,0.135-0.254,0.214-0.288,0.237c-0.835,0.733-1.563,1.298-2.184,1.693c-0.237,0.147-0.587,0.333-1.049,0.559
	c-0.463,0.226-0.869,0.434-1.219,0.626s-0.705,0.42-1.066,0.686c-0.361,0.265-0.64,0.576-0.838,0.931
	c-0.197,0.355-0.296,0.748-0.296,1.176c0,1.411,0.378,2.576,1.134,3.495c0.756,0.92,1.822,1.38,3.199,1.38
	c0.767,0,1.49-0.124,2.167-0.372v6.33c0,1.174,0.429,2.189,1.286,3.047c0.858,0.858,1.868,1.286,3.03,1.286
	c1.185,0,2.206-0.426,3.064-1.278c0.858-0.852,1.286-1.87,1.286-3.055v-2.861c0.7-0.045,1.371-0.254,2.014-0.626
	c0.237,0.034,0.48,0.051,0.728,0.051c1.14,0,2.144-0.339,3.013-1.016c1.569,0.011,2.807-0.468,3.715-1.439
	C973.769,160.679,974.223,159.398,974.223,157.807z"/>
<path fill="#0068FF" d="M261.135,165.452v1.857c0,0.251,0.092,0.469,0.276,0.653s0.401,0.276,0.653,0.276h24.142
	c0.251,0,0.469-0.092,0.653-0.276c0.184-0.184,0.276-0.401,0.276-0.653v-1.857c0-0.251-0.092-0.469-0.276-0.653
	s-0.401-0.276-0.653-0.276h-24.142c-0.251,0-0.469,0.092-0.653,0.276C261.226,164.983,261.135,165.2,261.135,165.452z
	 M266.706,159.881v1.857c0,0.251,0.092,0.469,0.276,0.653s0.401,0.276,0.653,0.276h18.571c0.251,0,0.469-0.092,0.653-0.276
	c0.184-0.184,0.276-0.401,0.276-0.653v-1.857c0-0.251-0.092-0.469-0.276-0.653s-0.401-0.276-0.653-0.276h-18.571
	c-0.251,0-0.469,0.092-0.653,0.276C266.798,159.412,266.706,159.629,266.706,159.881z M262.992,154.309v1.857
	c0,0.251,0.092,0.469,0.276,0.653s0.401,0.276,0.653,0.276h22.285c0.251,0,0.469-0.092,0.653-0.276
	c0.184-0.184,0.276-0.401,0.276-0.653v-1.857c0-0.251-0.092-0.469-0.276-0.653s-0.401-0.276-0.653-0.276h-22.285
	c-0.251,0-0.469,0.092-0.653,0.276C263.083,153.84,262.992,154.058,262.992,154.309z M268.563,148.738v1.857
	c0,0.251,0.092,0.469,0.276,0.653s0.401,0.276,0.653,0.276h16.714c0.251,0,0.469-0.092,0.653-0.276
	c0.184-0.184,0.276-0.401,0.276-0.653v-1.857c0-0.251-0.092-0.469-0.276-0.653s-0.401-0.276-0.653-0.276h-16.714
	c-0.251,0-0.469,0.092-0.653,0.276C268.655,148.269,268.563,148.487,268.563,148.738z"/>
<g>
	
		<circle fill="none" stroke="#000000" stroke-width="1.5" stroke-linecap="round" stroke-linejoin="round" stroke-miterlimit="10" cx="76.563" cy="45.487" r="10"/>
	<path fill="none" stroke="#000000" stroke-width="1.5" stroke-linecap="round" stroke-linejoin="round" stroke-miterlimit="10" d="
		M76.564,48.053c-3.097,0-5.752,1.77-7.08,4.425c1.77,1.858,4.336,2.92,7.08,2.92s5.31-1.15,7.08-2.92
		C82.317,49.911,79.662,48.053,76.564,48.053z"/>
	
		<circle fill="none" stroke="#000000" stroke-width="1.5" stroke-linecap="round" stroke-linejoin="round" stroke-miterlimit="10" cx="76.563" cy="42.566" r="3.186"/>
</g>
<g>
	<path stroke="#000000" stroke-width="0.5" d="M1168.031,39.791c0.746,0,1.465,0.284,2.01,0.794s0.875,1.208,0.925,1.953
		l0.007,0.193v0.891c-0.363-0.3-0.757-0.559-1.176-0.773v-0.117c0-0.439-0.164-0.862-0.458-1.186c-0.295-0.325-0.7-0.528-1.137-0.57
		l-0.169-0.008h-7.058c-0.439,0-0.862,0.164-1.186,0.458c-0.325,0.295-0.528,0.7-0.57,1.137l-0.008,0.169v7.058
		c0,0.439,0.164,0.862,0.458,1.186c0.295,0.325,0.7,0.528,1.137,0.57l0.169,0.008h0.117c0.215,0.421,0.474,0.815,0.773,1.176h-0.891
		c-0.746,0-1.465-0.284-2.011-0.794c-0.545-0.51-0.875-1.209-0.925-1.954l-0.005-0.193v-7.057c0-0.746,0.284-1.465,0.795-2.011
		c0.51-0.545,1.209-0.875,1.954-0.925l0.192-0.005h7.059l0,0C1168.033,39.791,1168.031,39.791,1168.031,39.791z M1164.694,35.902
		l0.056,0.185l0.676,2.525h-1.219l-0.594-2.222c-0.114-0.424-0.381-0.79-0.75-1.027s-0.813-0.329-1.245-0.256l-0.165,0.035
		l-6.818,1.828c-0.424,0.114-0.789,0.381-1.026,0.749s-0.329,0.813-0.257,1.245l0.035,0.167l1.828,6.817
		c0.097,0.365,0.31,0.688,0.605,0.924c0.295,0.235,0.658,0.37,1.035,0.383v1.176c-0.601-0.013-1.184-0.209-1.669-0.564
		c-0.485-0.354-0.852-0.847-1.048-1.415l-0.061-0.2l-1.827-6.817c-0.194-0.721-0.105-1.489,0.246-2.147
		c0.352-0.659,0.941-1.159,1.648-1.399l0.185-0.055l6.817-1.827c0.689-0.185,1.422-0.113,2.062,0.203
		c0.64,0.315,1.144,0.853,1.416,1.512l0.067,0.179h0.001L1164.694,35.902L1164.694,35.902z M1172.151,48.613
		c0,0.695-0.137,1.384-0.403,2.025c-0.266,0.642-0.656,1.225-1.147,1.717c-0.492,0.492-1.075,0.882-1.717,1.147
		c-0.643,0.266-1.331,0.403-2.025,0.403c-0.695,0-1.384-0.137-2.025-0.403c-0.642-0.266-1.225-0.656-1.717-1.147
		c-0.492-0.492-0.882-1.075-1.147-1.717c-0.266-0.643-0.403-1.331-0.403-2.025c0-1.404,0.557-2.751,1.551-3.744
		c0.993-0.993,2.339-1.551,3.744-1.551c1.404,0,2.751,0.557,3.744,1.551C1171.593,45.863,1172.151,47.21,1172.151,48.613z"/>
	<path fill="#FFFFFF" d="M1167.594,46.277c0-0.16-0.063-0.312-0.175-0.425c-0.112-0.112-0.265-0.175-0.425-0.175
		s-0.312,0.063-0.425,0.175c-0.112,0.112-0.175,0.265-0.175,0.425v1.8h-1.8c-0.16,0-0.312,0.063-0.425,0.175
		c-0.112,0.112-0.175,0.265-0.175,0.425s0.063,0.312,0.175,0.425c0.112,0.112,0.265,0.175,0.425,0.175h1.8v1.8
		c0,0.16,0.063,0.312,0.175,0.425c0.112,0.112,0.265,0.175,0.425,0.175s0.312-0.063,0.425-0.175
		c0.112-0.112,0.175-0.265,0.175-0.425v-1.8h1.8c0.16,0,0.312-0.063,0.425-0.175c0.112-0.112,0.175-0.265,0.175-0.425
		s-0.063-0.312-0.175-0.425c-0.112-0.112-0.265-0.175-0.425-0.175h-1.8V46.277z"/>
</g>
<path fill="#0068FF" d="M1168.031,91.352c0.746,0,1.465,0.284,2.01,0.794s0.875,1.208,0.925,1.953l0.007,0.193v0.891
	c-0.363-0.3-0.757-0.559-1.176-0.773v-0.117c0-0.439-0.164-0.862-0.458-1.186c-0.295-0.325-0.7-0.528-1.137-0.57l-0.169-0.008
	h-7.058c-0.439,0-0.862,0.164-1.186,0.458c-0.325,0.295-0.528,0.7-0.57,1.137l-0.008,0.169v7.058c0,0.439,0.164,0.862,0.458,1.186
	c0.295,0.325,0.7,0.528,1.137,0.57l0.169,0.008h0.117c0.215,0.421,0.474,0.815,0.773,1.176h-0.891c-0.746,0-1.465-0.284-2.011-0.794
	s-0.875-1.209-0.925-1.954l-0.005-0.193v-7.057c0-0.746,0.284-1.465,0.795-2.011c0.51-0.545,1.209-0.875,1.954-0.925l0.192-0.005
	h7.059l0,0H1168.031z M1164.694,87.463l0.056,0.185l0.676,2.525h-1.219l-0.594-2.222c-0.114-0.424-0.381-0.79-0.75-1.027
	s-0.813-0.329-1.245-0.256l-0.165,0.035l-6.818,1.828c-0.424,0.114-0.789,0.381-1.026,0.749c-0.237,0.368-0.329,0.813-0.257,1.245
	l0.035,0.167l1.828,6.817c0.097,0.365,0.31,0.688,0.605,0.924c0.295,0.235,0.658,0.37,1.035,0.383v1.176
	c-0.601-0.013-1.184-0.209-1.669-0.564c-0.485-0.354-0.852-0.847-1.048-1.415l-0.061-0.2l-1.827-6.817
	c-0.194-0.721-0.105-1.489,0.246-2.147c0.352-0.659,0.941-1.159,1.648-1.399l0.185-0.055l6.817-1.827
	c0.689-0.185,1.422-0.113,2.062,0.203c0.64,0.315,1.144,0.853,1.416,1.512l0.067,0.179h0.001L1164.694,87.463L1164.694,87.463z
	 M1172.151,100.174c0,0.695-0.137,1.384-0.403,2.025c-0.266,0.642-0.656,1.225-1.147,1.717c-0.492,0.492-1.075,0.882-1.717,1.147
	c-0.643,0.266-1.331,0.403-2.025,0.403c-0.695,0-1.384-0.137-2.025-0.403c-0.642-0.266-1.225-0.656-1.717-1.147
	c-0.492-0.492-0.882-1.075-1.147-1.717c-0.266-0.643-0.403-1.331-0.403-2.025c0-1.404,0.557-2.751,1.551-3.744
	c0.993-0.993,2.339-1.551,3.744-1.551c1.404,0,2.751,0.557,3.744,1.551C1171.593,97.424,1172.151,98.771,1172.151,100.174z
	 M1167.444,97.821c0-0.156-0.062-0.305-0.172-0.416c-0.11-0.11-0.26-0.172-0.416-0.172s-0.305,0.062-0.416,0.172
	c-0.11,0.11-0.172,0.26-0.172,0.416v1.764h-1.764c-0.156,0-0.305,0.062-0.416,0.172c-0.11,0.11-0.172,0.26-0.172,0.416
	s0.062,0.305,0.172,0.416c0.11,0.11,0.26,0.172,0.416,0.172h1.764v1.764c0,0.156,0.062,0.305,0.172,0.416
	c0.11,0.11,0.26,0.172,0.416,0.172s0.305-0.062,0.416-0.172c0.11-0.11,0.172-0.26,0.172-0.416v-1.764h1.765
	c0.156,0,0.305-0.062,0.416-0.172c0.11-0.11,0.172-0.26,0.172-0.416s-0.062-0.305-0.172-0.416c-0.11-0.11-0.26-0.172-0.416-0.172
	h-1.765V97.821z"/>
<g>
	
		<circle fill="none" stroke="#0068FF" stroke-width="1.5" stroke-linecap="round" stroke-linejoin="round" stroke-miterlimit="10" cx="714.998" cy="44.39" r="10"/>
	<path fill="none" stroke="#0068FF" stroke-width="1.5" stroke-linecap="round" stroke-linejoin="round" stroke-miterlimit="10" d="
		M714.999,46.956c-3.097,0-5.752,1.77-7.08,4.425c1.77,1.858,4.336,2.92,7.08,2.92s5.31-1.15,7.08-2.92
		C720.752,48.814,718.097,46.956,714.999,46.956z"/>
	
		<circle fill="none" stroke="#0068FF" stroke-width="1.5" stroke-linecap="round" stroke-linejoin="round" stroke-miterlimit="10" cx="714.998" cy="41.469" r="3.186"/>
</g>
<path d="M96.135,106.238l-1.4-1.4l5.6-5.6l-5.6-5.6l1.4-1.4l5.6,5.6l5.6-5.6l1.4,1.4l-5.6,5.6l5.6,5.6l-1.4,1.4l-5.6-5.6
	L96.135,106.238z"/>
<path fill="#0081F9" d="M1086.374,104.2c0.34,0,0.615,0.276,0.615,0.615s-0.276,0.615-0.615,0.615h-5.951
	c-0.34,0-0.615-0.276-0.615-0.615s0.276-0.615,0.615-0.615H1086.374z M1082.571,90.427c0.041,0.032,1.414,1.099,1.414,1.099
	c0.499,0.297,0.889,0.828,1.036,1.456c0.147,0.622,0.04,1.264-0.302,1.806c-0.002,0.004-0.005,0.007-0.013,0.018l-0.006,0.008
	c-0.055,0.073-0.297,0.378-1.515,1.905c-0.011,0.02-0.024,0.039-0.038,0.057c-0.02,0.027-0.043,0.052-0.067,0.074
	c-0.083,0.105-0.171,0.215-0.263,0.33l-0.187,0.234c-0.386,0.483-0.843,1.056-1.387,1.736l-0.279,0.349
	c-1.048,1.312-2.391,2.992-4.111,5.144c-0.377,0.469-0.941,0.743-1.547,0.75l-2.986,0.038h-0.008c-0.285,0-0.533-0.195-0.599-0.473
	l-0.672-2.848c-0.139-0.59-0.001-1.199,0.377-1.671l7.729-9.667c0.003-0.003,0.006-0.007,0.009-0.011
	C1080.005,89.747,1081.537,89.597,1082.571,90.427z M1078.286,93.818l-5.906,7.388c-0.14,0.176-0.192,0.402-0.14,0.619l0.559,2.367
	l2.493-0.031c0.237-0.002,0.456-0.108,0.601-0.289c0.748-0.936,1.688-2.112,2.654-3.321l0.342-0.428l0.342-0.429
	c0.906-1.134,1.802-2.255,2.551-3.193L1078.286,93.818z M1080.105,91.545l-1.05,1.311l3.496,2.684
	c0.673-0.843,1.116-1.398,1.157-1.451c0.134-0.218,0.187-0.527,0.117-0.824c-0.072-0.304-0.262-0.563-0.535-0.728
	c-0.058-0.04-1.441-1.113-1.483-1.147C1081.286,90.974,1080.527,91.046,1080.105,91.545z"/>
<path fill="#0068FF" d="M286.594,219.936h-3c-1.326,0-2.598,0.527-3.535,1.465c-0.938,0.938-1.465,2.209-1.465,3.535v3h-3v4h3v8h4
	v-8h3l1-4h-4v-3c0-0.265,0.105-0.519,0.293-0.707c0.187-0.187,0.442-0.293,0.707-0.293h3V219.936z"/>
<g>
	<path fill="none" stroke="#0068FF" stroke-width="2" stroke-linecap="round" stroke-linejoin="round" d="M312.301,239.936
		c5.523,0,10-4.477,10-10s-4.477-10-10-10s-10,4.477-10,10S306.778,239.936,312.301,239.936z"/>
	<path fill="none" stroke="#0068FF" stroke-width="2" stroke-linecap="round" stroke-linejoin="round" d="M302.301,229.936h20"/>
	<path fill="none" stroke="#0068FF" stroke-width="2" stroke-linecap="round" stroke-linejoin="round" d="M312.301,219.936
		c2.501,2.739,3.923,6.292,4,10c-0.077,3.708-1.499,7.262-4,10c-2.501-2.738-3.923-6.292-4-10
		C308.378,226.229,309.799,222.675,312.301,219.936L312.301,219.936z"/>
</g>
<path fill="#0068FF" d="M353.508,223.15c-0.736,0.382-1.526,0.64-2.356,0.756c0.857-0.601,1.498-1.547,1.804-2.66
	c-0.805,0.561-1.686,0.955-2.605,1.166c-0.618-0.773-1.437-1.286-2.329-1.458s-1.807,0.006-2.605,0.505
	c-0.797,0.5-1.431,1.294-1.803,2.259s-0.462,2.047-0.255,3.078c-1.632-0.096-3.228-0.593-4.685-1.458
	c-1.457-0.865-2.743-2.08-3.773-3.565c-0.352,0.712-0.555,1.538-0.555,2.416c-0.001,0.792,0.166,1.571,0.484,2.269
	c0.318,0.698,0.779,1.293,1.341,1.733c-0.651-0.024-1.289-0.23-1.858-0.601v0.062c0,1.11,0.328,2.186,0.928,3.045
	s1.435,1.449,2.364,1.668c-0.604,0.192-1.238,0.22-1.853,0.083c0.262,0.955,0.773,1.79,1.46,2.388
	c0.688,0.599,1.517,0.93,2.373,0.948c-1.453,1.336-3.249,2.062-5.096,2.058c-0.328,0-0.655-0.022-0.98-0.067
	c1.875,1.413,4.059,2.162,6.289,2.16c7.548,0,11.675-7.324,11.675-13.676c0-0.206-0.004-0.415-0.013-0.621
	c0.802-0.68,1.496-1.522,2.046-2.487L353.508,223.15z"/>
<path fill="#0068FF" d="M373.225,219.936c-2.987,0-3.362,0.013-4.535,0.066c-1.171,0.053-1.971,0.239-2.67,0.511
	c-0.734,0.276-1.399,0.71-1.948,1.269c-0.56,0.549-0.993,1.215-1.269,1.949c-0.272,0.699-0.457,1.499-0.511,2.67
	c-0.053,1.174-0.066,1.548-0.066,4.535s0.013,3.362,0.066,4.535c0.053,1.171,0.239,1.971,0.511,2.67
	c0.282,0.723,0.657,1.337,1.269,1.949c0.549,0.56,1.214,0.993,1.948,1.269c0.7,0.271,1.499,0.457,2.67,0.511
	c1.174,0.053,1.548,0.066,4.535,0.066s3.362-0.013,4.535-0.066c1.171-0.053,1.971-0.239,2.67-0.511
	c0.734-0.276,1.399-0.709,1.949-1.269c0.56-0.549,0.993-1.215,1.269-1.949c0.271-0.699,0.457-1.499,0.511-2.67
	c0.053-1.174,0.066-1.548,0.066-4.535s-0.013-3.362-0.066-4.535c-0.053-1.171-0.239-1.971-0.512-2.67
	c-0.276-0.734-0.709-1.399-1.268-1.949c-0.549-0.56-1.215-0.993-1.949-1.269c-0.699-0.271-1.499-0.457-2.67-0.511
	C376.586,219.949,376.211,219.936,373.225,219.936z M373.225,221.918c2.937,0,3.285,0.012,4.445,0.064
	c1.072,0.049,1.655,0.228,2.043,0.379c0.514,0.2,0.88,0.437,1.265,0.822c0.385,0.385,0.623,0.751,0.823,1.265
	c0.151,0.388,0.33,0.97,0.379,2.043c0.052,1.159,0.064,1.508,0.064,4.445s-0.012,3.285-0.064,4.445
	c-0.049,1.073-0.228,1.655-0.379,2.043c-0.176,0.478-0.457,0.91-0.823,1.265c-0.355,0.365-0.787,0.646-1.265,0.822
	c-0.387,0.151-0.97,0.33-2.043,0.379c-1.159,0.052-1.508,0.064-4.445,0.064s-3.286-0.012-4.445-0.064
	c-1.073-0.049-1.655-0.228-2.043-0.379c-0.478-0.176-0.91-0.457-1.265-0.822c-0.365-0.355-0.646-0.787-0.822-1.265
	c-0.151-0.387-0.33-0.97-0.379-2.043c-0.052-1.159-0.064-1.508-0.064-4.445s0.012-3.285,0.064-4.445
	c0.049-1.073,0.228-1.655,0.379-2.043c0.2-0.514,0.437-0.88,0.822-1.265c0.355-0.365,0.787-0.646,1.265-0.822
	c0.388-0.151,0.97-0.33,2.043-0.379C369.939,221.93,370.288,221.918,373.225,221.918z"/>
<path fill="#0068FF" d="M373.224,225.012c-1.571,0-3.077,0.624-4.188,1.735c-1.111,1.111-1.735,2.617-1.735,4.188
	s0.624,3.077,1.735,4.188c1.111,1.111,2.617,1.735,4.188,1.735c1.571,0,3.077-0.624,4.188-1.735
	c1.111-1.111,1.735-2.617,1.735-4.188s-0.624-3.077-1.735-4.188C376.301,225.636,374.795,225.012,373.224,225.012z M373.224,234.743
	c-1.01,0-1.978-0.401-2.692-1.115s-1.115-1.683-1.115-2.692s0.401-1.978,1.115-2.692s1.683-1.115,2.692-1.115
	c1.01,0,1.978,0.401,2.692,1.115s1.115,1.683,1.115,2.692s-0.401,1.978-1.115,2.692S374.234,234.743,373.224,234.743z
	 M380.585,225.097c0,0.178-0.035,0.354-0.103,0.518s-0.168,0.314-0.293,0.439c-0.126,0.126-0.275,0.225-0.439,0.293
	s-0.34,0.103-0.518,0.103s-0.354-0.035-0.518-0.103s-0.313-0.168-0.439-0.293c-0.126-0.126-0.225-0.275-0.293-0.439
	s-0.103-0.34-0.103-0.518c0-0.359,0.143-0.703,0.397-0.957s0.598-0.397,0.957-0.397s0.703,0.143,0.957,0.397
	C380.443,224.393,380.585,224.738,380.585,225.097z"/>
<path fill="#0068FF" d="M409.145,220.936h-9.625c-3.438,0-6.188,2.75-6.188,6.188v9.625c0,3.438,2.75,6.188,6.188,6.188h9.625
	c3.438,0,6.188-2.75,6.188-6.188v-9.625C415.333,223.686,412.583,220.936,409.145,220.936z M401.583,238.124
	c0,0.413-0.275,0.688-0.688,0.688h-2.75c-0.413,0-0.688-0.275-0.688-0.688v-8.25c0-0.413,0.275-0.688,0.688-0.688h2.75
	c0.413,0,0.688,0.275,0.688,0.688V238.124z M399.52,228.499c-1.169,0-2.063-0.894-2.063-2.063s0.894-2.063,2.063-2.063
	s2.063,0.894,2.063,2.063S400.689,228.499,399.52,228.499z M411.208,238.124c0,0.413-0.275,0.688-0.688,0.688h-2.063
	c-0.413,0-0.688-0.275-0.688-0.688v-2.406v-0.688v-1.375c0-0.55-0.481-1.031-1.031-1.031c-0.55,0-1.031,0.481-1.031,1.031v1.375
	v0.688v2.406c0,0.413-0.275,0.688-0.688,0.688h-2.063c-0.413,0-0.688-0.275-0.688-0.688v-8.25c0-0.413,0.275-0.688,0.688-0.688h2.75
	c0.206,0,0.344,0.069,0.481,0.206c0.413-0.137,0.825-0.206,1.238-0.206c2.063,0,3.781,1.719,3.781,3.781v5.157H411.208z"/>
</svg>
