<?xml version="1.0" encoding="utf-8"?>
<!-- Generator: Adobe Illustrator 17.0.0, SVG Export Plug-In . SVG Version: 6.00 Build 0)  -->
<!DOCTYPE svg PUBLIC "-//W3C//DTD SVG 1.1//EN" "http://www.w3.org/Graphics/SVG/1.1/DTD/svg11.dtd">
<svg version="1.1" id="Layer_1" xmlns="http://www.w3.org/2000/svg" xmlns:xlink="http://www.w3.org/1999/xlink" x="0px" y="0px"
	 width="766px" height="840px" viewBox="0 0 766 840" enable-background="new 0 0 766 840" xml:space="preserve">
<rect y="-1.182" display="none" fill="#0B77DE" stroke="#000000" stroke-miterlimit="10" width="766" height="841.182"/>
<g display="none">
	<g display="inline">
		<circle fill-opacity="0.3" cx="20.428" cy="62.319" r="13"/>
		<path fill="none" stroke="#333333" stroke-width="1.5" stroke-linecap="round" stroke-linejoin="round" d="M20.627,67.213h5.2"/>
		<path fill="none" stroke="#333333" stroke-width="1.5" stroke-linecap="round" stroke-linejoin="round" d="M23.228,57.678
			c0.23-0.23,0.542-0.359,0.867-0.359c0.161,0,0.32,0.032,0.469,0.093c0.149,0.062,0.284,0.152,0.398,0.266s0.204,0.249,0.266,0.398
			s0.093,0.308,0.093,0.469c0,0.161-0.032,0.32-0.093,0.469s-0.152,0.284-0.266,0.398l-7.222,7.222l-2.311,0.578l0.578-2.311
			L23.228,57.678z"/>
	</g>
	<circle display="inline" fill="none" stroke="#333333" stroke-opacity="0.58" cx="20.374" cy="62.319" r="12.5"/>
</g>
<circle display="none" fill-opacity="0.3" cx="19.928" cy="354.5" r="13"/>
<path id="Vector" fill="#FFFFFF" d="M12.306,9.5c-0.629,0-1.232,0.248-1.677,0.691c-0.445,0.442-0.694,1.042-0.694,1.668v15.723
	c0,1.043,0.416,2.042,1.157,2.779c0.741,0.737,1.746,1.151,2.794,1.151h15.017c0.838,0,1.643-0.331,2.235-0.921
	c0.593-0.59,0.926-1.39,0.926-2.224V15.789c0-0.552-0.146-1.094-0.424-1.572c-0.277-0.478-0.676-0.875-1.157-1.151v-0.421
	c0-0.834-0.333-1.634-0.926-2.224C28.965,9.831,28.161,9.5,27.323,9.5H12.306z M28.904,12.645H12.306
	c-0.21,0-0.411-0.083-0.559-0.23c-0.148-0.147-0.231-0.347-0.231-0.556c0-0.208,0.083-0.408,0.231-0.556
	c0.148-0.147,0.349-0.23,0.559-0.23h15.017c0.419,0,0.821,0.166,1.118,0.461C28.737,11.828,28.904,12.228,28.904,12.645z
	 M26.533,22.078h1.581c0.21,0,0.411,0.083,0.559,0.23s0.231,0.347,0.231,0.556s-0.083,0.409-0.231,0.556s-0.349,0.23-0.559,0.23
	h-1.581c-0.21,0-0.411-0.083-0.559-0.23s-0.232-0.347-0.232-0.556s0.083-0.408,0.232-0.556
	C26.122,22.161,26.323,22.078,26.533,22.078z"/>
<defs>
	<filter id="Adobe_OpacityMaskFilter" filterUnits="userSpaceOnUse" x="9.935" y="38.468" width="26.532" height="26.532">
		<feColorMatrix  type="matrix" values="1 0 0 0 0  0 1 0 0 0  0 0 1 0 0  0 0 0 1 0"/>
	</filter>
</defs>
<mask maskUnits="userSpaceOnUse" x="9.935" y="38.468" width="26.532" height="26.532" id="mask0_2125_7166_1_">
	<path fill="#FFFFFF" filter="url(#Adobe_OpacityMaskFilter)" d="M9.935,38.468h26.532V65H9.935V38.468z"/>
</mask>
<g mask="url(#mask0_2125_7166_1_)">
	<path fill="#ADADAD" d="M36.467,51.734C36.467,59.06,30.527,65,23.201,65S9.935,59.06,9.935,51.734s5.94-13.266,13.266-13.266
		C30.527,38.468,36.467,44.408,36.467,51.734z M23.676,48.262c-1.29,0.536-3.869,1.647-7.736,3.332
		c-0.628,0.25-0.957,0.494-0.987,0.733c-0.051,0.405,0.455,0.564,1.143,0.779c0.094,0.03,0.191,0.06,0.291,0.093
		c0.678,0.22,1.589,0.478,2.062,0.488c0.43,0.009,0.91-0.168,1.439-0.531c3.613-2.44,5.478-3.672,5.595-3.699
		c0.083-0.019,0.198-0.043,0.275,0.027c0.077,0.069,0.07,0.199,0.062,0.234c-0.051,0.213-2.034,2.058-3.062,3.014
		c-0.321,0.297-0.547,0.508-0.594,0.557c-0.104,0.107-0.21,0.21-0.312,0.309c-0.63,0.606-1.101,1.061,0.026,1.804
		c0.542,0.357,0.975,0.652,1.407,0.946c0.472,0.322,0.943,0.642,1.553,1.043c0.155,0.102,0.303,0.207,0.448,0.31
		c0.549,0.392,1.044,0.744,1.654,0.689c0.354-0.033,0.721-0.366,0.906-1.36c0.439-2.35,1.303-7.44,1.503-9.538
		c0.012-0.174,0.005-0.349-0.022-0.522c-0.016-0.139-0.084-0.268-0.19-0.359c-0.158-0.129-0.404-0.157-0.514-0.155
		C28.126,46.463,27.361,46.73,23.676,48.262z"/>
</g>
<path fill="#ADADAD" d="M60.654,51.734c0,1.099-0.437,2.154-1.214,2.931s-1.832,1.214-2.931,1.214s-2.154-0.437-2.931-1.214
	c-0.777-0.778-1.214-1.832-1.214-2.931c0-0.236,0.025-0.467,0.068-0.691h-1.45v5.523c0,0.384,0.311,0.695,0.695,0.695h9.666
	c0.184,0,0.361-0.074,0.491-0.204c0.13-0.13,0.203-0.307,0.203-0.491v-5.523h-1.45C60.629,51.267,60.654,51.498,60.654,51.734z
	 M56.509,54.498c0.363,0,0.722-0.072,1.058-0.211c0.335-0.139,0.64-0.343,0.897-0.599c0.257-0.257,0.46-0.562,0.599-0.897
	s0.21-0.695,0.21-1.058s-0.072-0.722-0.211-1.058s-0.343-0.64-0.599-0.897c-0.257-0.257-0.562-0.46-0.897-0.599
	s-0.695-0.21-1.058-0.21c-0.733,0-1.436,0.292-1.955,0.81c-0.518,0.519-0.809,1.222-0.809,1.955s0.292,1.436,0.81,1.955
	C55.072,54.207,55.776,54.498,56.509,54.498z M59.825,48.832h1.657c0.11,0,0.216-0.044,0.294-0.121
	c0.078-0.078,0.122-0.183,0.122-0.293v-1.657c0-0.11-0.044-0.216-0.122-0.294c-0.078-0.078-0.184-0.122-0.294-0.122h-1.657
	c-0.11,0-0.216,0.044-0.294,0.122c-0.078,0.078-0.122,0.184-0.122,0.294v1.657C59.411,48.646,59.597,48.832,59.825,48.832z
	 M56.509,38.468c-3.518,0-6.893,1.398-9.38,3.885c-2.488,2.488-3.885,5.862-3.885,9.38s1.398,6.893,3.885,9.38
	C49.616,63.602,52.99,65,56.509,65c1.742,0,3.467-0.343,5.077-1.01c1.61-0.667,3.072-1.644,4.304-2.876s2.209-2.694,2.876-4.304
	c0.667-1.609,1.01-3.334,1.01-5.077s-0.343-3.467-1.01-5.077c-0.667-1.609-1.644-3.072-2.876-4.304
	c-1.232-1.232-2.694-2.209-4.304-2.876C59.976,38.812,58.251,38.468,56.509,38.468z M63.418,57.108c0,0.844-0.691,1.535-1.535,1.535
	H51.135c-0.844,0-1.535-0.691-1.535-1.535V46.36c0-0.844,0.691-1.535,1.535-1.535h10.748c0.844,0,1.535,0.691,1.535,1.535V57.108z"
	/>
<path fill="#ADADAD" d="M103.082,51.767c0-7.323-5.943-13.266-13.266-13.266S76.55,44.444,76.55,51.767
	c0,6.421,4.563,11.767,10.613,13.001v-9.021H84.51v-3.98h2.653v-3.316c0-2.56,2.083-4.643,4.643-4.643h3.317v3.98H92.47
	c-0.73,0-1.327,0.597-1.327,1.327v2.653h3.98v3.98h-3.98v9.22C97.842,64.304,103.082,58.652,103.082,51.767z"/>
<path fill="#A352CA" d="M18.138,76.685c-0.201-0.12-0.461-0.12-0.682,0l-1.564,0.919l-1.063,0.6l-1.564,0.919
	c-0.201,0.12-0.461,0.12-0.682,0l-1.244-0.719c-0.201-0.12-0.341-0.34-0.341-0.58v-1.419c0-0.24,0.12-0.46,0.341-0.58l1.223-0.699
	c0.201-0.12,0.461-0.12,0.682,0l1.223,0.699c0.201,0.12,0.341,0.34,0.341,0.58v0.919l1.063-0.62v-0.919c0-0.24-0.12-0.46-0.341-0.58
	l-2.266-1.319c-0.201-0.12-0.461-0.12-0.682,0l-2.307,1.319c-0.221,0.12-0.341,0.34-0.341,0.58v2.658c0,0.24,0.12,0.46,0.341,0.58
	l2.307,1.319c0.201,0.12,0.461,0.12,0.682,0l1.564-0.899l1.063-0.62l1.564-0.899c0.201-0.12,0.461-0.12,0.682,0l1.223,0.699
	c0.201,0.12,0.341,0.34,0.341,0.58v1.419c0,0.24-0.12,0.46-0.341,0.58l-1.223,0.719c-0.201,0.12-0.461,0.12-0.682,0l-1.223-0.699
	c-0.201-0.12-0.341-0.34-0.341-0.58v-0.919l-1.063,0.62v0.919c0,0.24,0.12,0.46,0.341,0.58l2.307,1.319
	c0.201,0.12,0.461,0.12,0.682,0l2.307-1.319c0.201-0.12,0.341-0.34,0.341-0.58v-2.658c0-0.24-0.12-0.46-0.341-0.58L18.138,76.685z"
	/>
<g>
	<path fill="#26A17B" d="M32.591,83.25c3.132,0,5.672-2.539,5.672-5.672c0-3.132-2.539-5.672-5.672-5.672
		c-3.132,0-5.672,2.539-5.672,5.672C26.919,80.711,29.459,83.25,32.591,83.25z"/>
	<path fill="#FFFFFF" d="M33.273,78.069L33.273,78.069c-0.039,0.002-0.24,0.014-0.688,0.014c-0.358,0-0.61-0.011-0.699-0.015v0.001
		c-1.378-0.061-2.407-0.301-2.407-0.588c0-0.287,1.029-0.527,2.407-0.588v0.937c0.09,0.006,0.348,0.022,0.705,0.022
		c0.428,0,0.642-0.018,0.682-0.021v-0.937c1.375,0.061,2.402,0.301,2.402,0.588C35.674,77.768,34.648,78.008,33.273,78.069z
		 M33.273,76.796v-0.839h1.919v-1.279h-5.225v1.279h1.919v0.838c-1.56,0.072-2.733,0.381-2.733,0.751s1.173,0.679,2.733,0.751v2.688
		h1.387v-2.688C34.83,78.225,36,77.916,36,77.546S34.83,76.868,33.273,76.796z"/>
</g>
<circle fill="#6CDB00" cx="48.257" cy="78.524" r="4.726"/>
<g>
	<circle fill="#ADADAD" cx="123.125" cy="51.734" r="13.266"/>
	<path fill="#FFFFFF" d="M128.641,46.135c-1.034-0.482-2.153-0.831-3.318-1.034c-0.01,0-0.02,0.002-0.03,0.006
		c-0.009,0.004-0.018,0.01-0.025,0.018c-0.14,0.256-0.303,0.591-0.412,0.847c-1.236-0.187-2.494-0.187-3.73,0
		c-0.109-0.264-0.272-0.591-0.42-0.847c-0.008-0.016-0.031-0.023-0.054-0.023c-1.166,0.202-2.277,0.552-3.318,1.034
		c-0.008,0-0.016,0.008-0.023,0.016c-2.114,3.163-2.697,6.24-2.409,9.286c0,0.016,0.008,0.031,0.023,0.039
		c1.399,1.026,2.743,1.648,4.072,2.059c0.023,0.008,0.047,0,0.054-0.015c0.311-0.427,0.591-0.878,0.832-1.352
		c0.016-0.031,0-0.062-0.031-0.07c-0.443-0.171-0.863-0.373-1.274-0.606c-0.031-0.016-0.031-0.062-0.008-0.085
		c0.085-0.062,0.171-0.132,0.256-0.194c0.016-0.015,0.039-0.015,0.054-0.008c2.673,1.22,5.556,1.22,8.198,0
		c0.016-0.008,0.039-0.008,0.054,0.008c0.085,0.07,0.171,0.132,0.257,0.202c0.031,0.023,0.031,0.07-0.008,0.085
		c-0.404,0.241-0.831,0.435-1.274,0.606c-0.031,0.008-0.039,0.047-0.031,0.07c0.249,0.474,0.528,0.925,0.831,1.352
		c0.023,0.008,0.047,0.015,0.07,0.008c1.337-0.412,2.681-1.034,4.08-2.059c0.016-0.008,0.023-0.023,0.023-0.039
		c0.342-3.52-0.567-6.574-2.409-9.286C128.664,46.143,128.656,46.135,128.641,46.135z M120.287,53.579
		c-0.8,0-1.469-0.738-1.469-1.647s0.653-1.647,1.469-1.647c0.824,0,1.476,0.746,1.469,1.647
		C121.756,52.841,121.103,53.579,120.287,53.579z M125.704,53.579c-0.8,0-1.469-0.738-1.469-1.647s0.653-1.647,1.469-1.647
		c0.824,0,1.477,0.746,1.469,1.647C127.172,52.841,126.527,53.579,125.704,53.579z"/>
</g>
<g>
	<circle fill="#F79604" cx="114.406" cy="173.049" r="11.927"/>
	<path fill="#FFFFFF" d="M119.365,168.015c-0.93-0.433-1.936-0.747-2.983-0.93c-0.009,0-0.018,0.002-0.027,0.005
		c-0.008,0.004-0.016,0.009-0.022,0.016c-0.126,0.23-0.272,0.531-0.37,0.762c-1.111-0.168-2.242-0.168-3.354,0
		c-0.098-0.237-0.245-0.531-0.378-0.762c-0.007-0.014-0.028-0.021-0.049-0.021c-1.048,0.182-2.047,0.496-2.983,0.93
		c-0.007,0-0.014,0.007-0.021,0.014c-1.901,2.844-2.425,5.61-2.166,8.349c0,0.014,0.007,0.028,0.021,0.035
		c1.258,0.922,2.466,1.482,3.661,1.851c0.021,0.007,0.042,0,0.049-0.013c0.28-0.384,0.531-0.789,0.748-1.216
		c0.014-0.028,0-0.056-0.028-0.063c-0.398-0.154-0.776-0.335-1.145-0.545c-0.028-0.014-0.028-0.056-0.007-0.076
		c0.076-0.056,0.154-0.119,0.23-0.174c0.014-0.013,0.035-0.013,0.049-0.007c2.403,1.097,4.995,1.097,7.371,0
		c0.014-0.007,0.035-0.007,0.049,0.007c0.076,0.063,0.154,0.119,0.231,0.182c0.028,0.021,0.028,0.063-0.007,0.076
		c-0.363,0.217-0.747,0.391-1.145,0.545c-0.028,0.007-0.035,0.042-0.028,0.063c0.224,0.426,0.475,0.832,0.747,1.216
		c0.021,0.007,0.042,0.013,0.063,0.007c1.202-0.37,2.41-0.93,3.668-1.851c0.014-0.007,0.021-0.021,0.021-0.035
		c0.307-3.165-0.51-5.91-2.166-8.349C119.386,168.022,119.378,168.015,119.365,168.015z M111.854,174.708
		c-0.719,0-1.321-0.663-1.321-1.481c0-0.817,0.587-1.481,1.321-1.481c0.741,0,1.327,0.671,1.321,1.481
		C113.175,174.044,112.588,174.708,111.854,174.708z M116.724,174.708c-0.719,0-1.321-0.663-1.321-1.481
		c0-0.817,0.587-1.481,1.321-1.481c0.741,0,1.328,0.671,1.321,1.481C118.044,174.044,117.464,174.708,116.724,174.708z"/>
</g>
<g>
	<circle fill="#ADADAD" cx="156.432" cy="51.32" r="13.266"/>
	<path fill="#FFFFFF" d="M159.655,52.654c0.064-0.528,0.112-1.056,0.112-1.6s-0.048-1.072-0.112-1.6h2.704
		c0.128,0.512,0.208,1.048,0.208,1.6s-0.08,1.088-0.208,1.6 M158.239,57.102c0.48-0.888,0.848-1.848,1.104-2.848h2.36
		C160.928,55.588,159.698,56.599,158.239,57.102z M158.039,52.654h-3.744c-0.08-0.528-0.128-1.056-0.128-1.6s0.048-1.08,0.128-1.6
		h3.744c0.072,0.52,0.128,1.056,0.128,1.6S158.111,52.126,158.039,52.654z M156.167,57.422c-0.664-0.96-1.2-2.024-1.528-3.168h3.056
		C157.367,55.398,156.831,56.462,156.167,57.422z M152.967,47.854h-2.336c0.767-1.338,1.996-2.351,3.456-2.848
		C153.607,45.894,153.247,46.854,152.967,47.854z M150.631,54.254h2.336c0.28,1,0.64,1.96,1.12,2.848
		C152.63,56.599,151.403,55.588,150.631,54.254z M149.975,52.654c-0.128-0.512-0.208-1.048-0.208-1.6s0.08-1.088,0.208-1.6h2.704
		c-0.064,0.528-0.112,1.056-0.112,1.6s0.048,1.072,0.112,1.6 M156.167,44.678c0.664,0.96,1.2,2.032,1.528,3.176h-3.056
		C154.967,46.71,155.503,45.638,156.167,44.678z M161.703,47.854h-2.36c-0.25-0.991-0.621-1.947-1.104-2.848
		C159.711,45.51,160.935,46.526,161.703,47.854z M156.167,43.054c-4.424,0-8,3.6-8,8c0,2.122,0.843,4.157,2.343,5.657
		c0.743,0.743,1.625,1.332,2.595,1.734c0.971,0.402,2.011,0.609,3.061,0.609c2.122,0,4.157-0.843,5.657-2.343
		s2.343-3.535,2.343-5.657c0-1.051-0.207-2.091-0.609-3.061c-0.402-0.971-0.991-1.853-1.734-2.595
		c-0.743-0.743-1.625-1.332-2.595-1.734C158.258,43.261,157.217,43.054,156.167,43.054z"/>
</g>
<g>
	<circle fill="#F79604" cx="145.732" cy="173.049" r="11.927"/>
	<path fill="#FFFFFF" d="M148.63,174.248c0.058-0.475,0.101-0.949,0.101-1.439s-0.043-0.964-0.101-1.439h2.431
		c0.115,0.46,0.187,0.942,0.187,1.439s-0.072,0.978-0.187,1.439 M147.356,178.247c0.432-0.798,0.762-1.661,0.993-2.561h2.122
		C149.774,176.886,148.668,177.795,147.356,178.247z M147.177,174.248h-3.366c-0.072-0.475-0.115-0.949-0.115-1.439
		s0.043-0.971,0.115-1.439h3.366c0.065,0.468,0.115,0.949,0.115,1.439S147.241,173.774,147.177,174.248z M145.494,178.535
		c-0.597-0.863-1.079-1.82-1.374-2.848h2.748C146.572,176.715,146.091,177.672,145.494,178.535z M142.617,169.933h-2.1
		c0.69-1.203,1.795-2.114,3.107-2.561C143.192,168.171,142.868,169.034,142.617,169.933z M140.516,175.687h2.1
		c0.252,0.899,0.575,1.762,1.007,2.561C142.314,177.795,141.21,176.886,140.516,175.687z M139.927,174.248
		c-0.115-0.46-0.187-0.942-0.187-1.439s0.072-0.978,0.187-1.439h2.431c-0.058,0.475-0.101,0.949-0.101,1.439
		s0.043,0.964,0.101,1.439 M145.494,167.078c0.597,0.863,1.079,1.827,1.374,2.855h-2.748
		C144.415,168.904,144.897,167.941,145.494,167.078z M150.471,169.933h-2.122c-0.225-0.891-0.558-1.75-0.993-2.561
		C148.68,167.826,149.78,168.739,150.471,169.933z M145.494,165.617c-3.977,0-7.193,3.237-7.193,7.193
		c0,1.908,0.758,3.737,2.107,5.086c0.668,0.668,1.461,1.198,2.333,1.559c0.873,0.361,1.808,0.548,2.752,0.548
		c1.908,0,3.737-0.758,5.086-2.107c1.349-1.349,2.107-3.178,2.107-5.086c0-0.945-0.186-1.88-0.548-2.752
		c-0.361-0.873-0.891-1.666-1.559-2.333c-0.668-0.668-1.461-1.198-2.333-1.559C147.374,165.804,146.438,165.617,145.494,165.617z"/>
</g>
<g>
	<path fill="#D9D9D9" fill-opacity="0.29" d="M195.667,64.734h-10c-4.418,0-8-3.582-8-8v-10c0-4.418,3.582-8,8-8h10
		c4.418,0,8,3.582,8,8v10C203.667,61.152,200.085,64.734,195.667,64.734z"/>
	<path d="M193.497,56.722c0.054,0.057,0.096,0.125,0.124,0.198c0.028,0.074,0.041,0.152,0.039,0.231s-0.02,0.156-0.052,0.228
		s-0.078,0.137-0.135,0.191c-0.057,0.054-0.125,0.096-0.198,0.125c-0.074,0.028-0.152,0.041-0.231,0.039
		c-0.079-0.002-0.156-0.02-0.228-0.052c-0.072-0.032-0.137-0.078-0.191-0.135l-5.097-5.397c-0.105-0.111-0.164-0.259-0.164-0.412
		s0.059-0.301,0.164-0.412l5.097-5.397c0.054-0.059,0.118-0.106,0.191-0.139c0.072-0.033,0.15-0.052,0.23-0.055
		c0.079-0.003,0.159,0.01,0.233,0.038s0.142,0.071,0.2,0.125c0.058,0.055,0.104,0.12,0.136,0.193s0.05,0.151,0.051,0.23
		c0.002,0.079-0.012,0.158-0.041,0.232c-0.029,0.074-0.072,0.141-0.128,0.198l-4.708,4.986L193.497,56.722z"/>
</g>
<g>
	<path fill="#D9D9D9" fill-opacity="0.29" d="M223,39.32h10c4.418,0,8,3.582,8,8v10c0,4.418-3.582,8-8,8h-10c-4.418,0-8-3.582-8-8
		v-10C215,42.901,218.582,39.32,223,39.32z"/>
	<path d="M225.169,47.331c-0.054-0.057-0.096-0.125-0.124-0.198c-0.028-0.074-0.041-0.152-0.039-0.231s0.02-0.156,0.052-0.228
		c0.032-0.072,0.078-0.137,0.135-0.191c0.057-0.054,0.125-0.096,0.198-0.124c0.074-0.028,0.152-0.041,0.231-0.039
		c0.079,0.002,0.156,0.02,0.228,0.052c0.072,0.032,0.137,0.078,0.191,0.135l5.097,5.397c0.105,0.111,0.164,0.259,0.164,0.412
		s-0.059,0.301-0.164,0.412l-5.097,5.397c-0.054,0.058-0.118,0.106-0.191,0.139c-0.072,0.033-0.15,0.052-0.23,0.055
		c-0.079,0.003-0.158-0.01-0.233-0.038c-0.074-0.028-0.142-0.07-0.2-0.125s-0.104-0.12-0.136-0.193s-0.05-0.151-0.051-0.23
		c-0.002-0.079,0.012-0.158,0.041-0.232c0.029-0.074,0.072-0.141,0.128-0.198l4.708-4.986L225.169,47.331z"/>
</g>
<g id="Group_1171276292">
	<g id="Ellipse_9">
		<circle fill="#EAEAEA" fill-opacity="0.07" cx="32.591" cy="128" r="24"/>
		<circle fill="none" stroke="#000000" stroke-opacity="0.22" cx="32.591" cy="128" r="23.5"/>
	</g>
	<path id="Vector_1_" d="M38.648,124.4v-0.525c0-2.353-3.548-4.125-8.26-4.125s-8.26,1.772-8.26,4.125v3.75
		c0,1.959,2.459,3.516,6.007,3.984v0.516c0,2.353,3.548,4.125,8.26,4.125s8.26-1.772,8.26-4.125v-3.75
		C44.655,126.434,42.271,124.878,38.648,124.4z M28.135,130.081v-2.222c0.747,0.096,1.5,0.143,2.253,0.141
		c0.753,0.002,1.506-0.045,2.253-0.141v2.222c-0.745,0.116-1.499,0.172-2.253,0.169C29.633,130.254,28.88,130.197,28.135,130.081z
		 M37.146,126.303v1.322c0,0.788-1.164,1.631-3.004,2.147v-2.194C35.353,127.287,36.376,126.847,37.146,126.303z M23.629,127.625
		v-1.322c0.77,0.544,1.793,0.984,3.004,1.275v2.194C24.793,129.256,23.629,128.413,23.629,127.625z M29.637,132.125v-0.394
		l0.751,0.019c0.369,0,0.726-0.009,1.07-0.028c0.375,0.131,0.77,0.244,1.183,0.347v2.203
		C30.801,133.756,29.637,132.913,29.637,132.125z M34.142,134.581v-2.231c0.747,0.098,1.499,0.148,2.253,0.15
		c0.753,0.002,1.506-0.045,2.253-0.141v2.222C37.154,134.806,35.636,134.806,34.142,134.581z M40.15,134.272v-2.194
		c1.211-0.291,2.234-0.731,3.004-1.275v1.322C43.153,132.913,41.99,133.756,40.15,134.272z"/>
</g>
<g id="Group_1171276293">
	<g id="Ellipse_10">
		<circle fill="#EAEAEA" fill-opacity="0.07" cx="221" cy="128" r="24"/>
		<circle fill="none" stroke="#000000" stroke-opacity="0.22" cx="221" cy="128" r="23.5"/>
	</g>
	<path id="Vector_5_" d="M230.398,120.365c-0.126-0.06-0.266-0.085-0.405-0.072c-0.139,0.013-0.271,0.064-0.384,0.147
		c-2.656,1.987-4.909,1.031-7.509-0.084c-2.6-1.116-5.66-2.428-9.011,0.084h-0.009l-0.038,0.028l-0.019,0.019l-0.028,0.028
		l-0.028,0.028l-0.019,0.028l-0.028,0.028c0,0.009-0.009,0.019-0.019,0.028l-0.019,0.037c0,0.009-0.009,0.019-0.009,0.028
		c-0.01,0.011-0.016,0.024-0.019,0.037c-0.009,0.009-0.009,0.019-0.019,0.038c-0.009,0.019-0.009,0.019-0.009,0.028
		s-0.009,0.028-0.009,0.037s-0.009,0.019-0.009,0.028s-0.009,0.028-0.009,0.037v0.047c0,0.009-0.009,0.028-0.009,0.037v15.806
		c0,0.199,0.079,0.39,0.22,0.53c0.141,0.141,0.332,0.22,0.531,0.22s0.39-0.079,0.531-0.22s0.22-0.331,0.22-0.53v-4.116
		c2.525-1.697,4.703-0.769,7.209,0.309c1.53,0.647,3.173,1.35,4.937,1.35c1.295,0,2.656-0.375,4.074-1.444
		c0.093-0.07,0.168-0.161,0.22-0.265s0.08-0.219,0.08-0.335v-11.25c-0.001-0.139-0.04-0.276-0.113-0.395
		C230.626,120.526,230.522,120.429,230.398,120.365z"/>
</g>
<g>
	<circle fill="#EAEAEA" fill-opacity="0.07" cx="158.197" cy="128" r="24"/>
	<circle fill="none" stroke="#000000" stroke-opacity="0.22" cx="158.197" cy="128" r="23.5"/>
	<path d="M158.998,117.5c-2.079,0-4.112,0.616-5.841,1.77s-3.076,2.794-3.872,4.712c-0.796,1.919-1.004,4.03-0.598,6.067
		c0.406,2.037,1.407,3.908,2.877,5.376s3.344,2.468,5.383,2.874c2.039,0.405,4.153,0.197,6.074-0.598
		c1.921-0.795,3.563-2.141,4.718-3.867c1.155-1.727,1.772-3.757,1.772-5.833c-0.005-2.783-1.115-5.451-3.085-7.419
		C164.455,118.613,161.784,117.505,158.998,117.5z M164.002,126.162l-5.924,5.654c-0.153,0.144-0.356,0.223-0.566,0.222
		c-0.103,0.002-0.205-0.018-0.3-0.056s-0.182-0.095-0.256-0.166l-2.962-2.827c-0.082-0.072-0.149-0.159-0.196-0.257
		c-0.048-0.098-0.075-0.205-0.08-0.314s0.012-0.217,0.05-0.319c0.038-0.102,0.096-0.195,0.171-0.275
		c0.075-0.079,0.165-0.142,0.265-0.185s0.208-0.066,0.317-0.067c0.109-0.001,0.217,0.021,0.317,0.063
		c0.101,0.042,0.191,0.104,0.268,0.182l2.406,2.292l5.378-5.119c0.157-0.137,0.361-0.208,0.57-0.198
		c0.208,0.01,0.405,0.1,0.549,0.251s0.223,0.352,0.222,0.56C164.229,125.813,164.147,126.013,164.002,126.162z"/>
</g>
<g>
	<circle fill="#EAEAEA" fill-opacity="0.07" cx="94.816" cy="128" r="24"/>
	<circle fill="none" stroke="#000000" stroke-opacity="0.22" cx="94.816" cy="128" r="23.5"/>
	<path d="M103.579,122.698h-14.76c-0.196,0-0.383-0.078-0.522-0.216c-0.138-0.138-0.216-0.326-0.216-0.521
		c0-0.195,0.078-0.383,0.216-0.521s0.326-0.216,0.522-0.216h12.546c0.196,0,0.383-0.078,0.522-0.216
		c0.138-0.138,0.216-0.326,0.216-0.521c0-0.196-0.078-0.383-0.216-0.521s-0.326-0.216-0.522-0.216H88.819
		c-0.587,0.002-1.148,0.236-1.563,0.65s-0.649,0.975-0.651,1.561v11.793c0.002,0.586,0.236,1.147,0.651,1.561
		s0.976,0.648,1.563,0.65h14.76c0.392,0,0.767-0.155,1.044-0.432c0.277-0.276,0.432-0.651,0.432-1.042v-10.319
		c0-0.391-0.156-0.766-0.432-1.043C104.346,122.854,103.97,122.698,103.579,122.698z M100.258,130.438
		c-0.219,0-0.433-0.065-0.615-0.186c-0.182-0.122-0.324-0.294-0.408-0.496s-0.106-0.424-0.063-0.639
		c0.043-0.214,0.148-0.411,0.303-0.566s0.352-0.26,0.567-0.303c0.215-0.043,0.437-0.021,0.64,0.063
		c0.202,0.084,0.375,0.226,0.497,0.407c0.122,0.182,0.187,0.396,0.187,0.614c0,0.293-0.117,0.575-0.324,0.782
		C100.833,130.321,100.551,130.438,100.258,130.438z"/>
</g>
<g>
	<path fill="#5C5C5C" d="M61.316,11.506H44.65c-0.92,0-1.667,0.746-1.667,1.667v16.667c0,0.92,0.746,1.667,1.667,1.667h16.667
		c0.921,0,1.667-0.746,1.667-1.667V13.173C62.983,12.252,62.237,11.506,61.316,11.506z"/>
	<path fill="none" stroke="#FFFFFF" stroke-width="2" stroke-linecap="round" stroke-linejoin="round" d="M52.983,17.062v8.889
		 M48.539,21.506h8.889"/>
</g>
<g>
	<path fill="#5C5C5C" d="M91.5,11.506H74.833c-0.442,0-0.866,0.176-1.179,0.488c-0.313,0.313-0.488,0.736-0.488,1.179v16.667
		c0,0.442,0.176,0.866,0.488,1.179c0.313,0.313,0.736,0.488,1.179,0.488H91.5c0.442,0,0.866-0.176,1.178-0.488
		c0.313-0.313,0.488-0.736,0.488-1.179V13.173c0-0.442-0.176-0.866-0.488-1.179C92.366,11.682,91.942,11.506,91.5,11.506z
		 M89,22.339H77.333c-0.221,0-0.433-0.088-0.589-0.244c-0.156-0.156-0.244-0.368-0.244-0.589c0-0.221,0.088-0.433,0.244-0.589
		s0.368-0.244,0.589-0.244H89c0.221,0,0.433,0.088,0.589,0.244c0.156,0.156,0.244,0.368,0.244,0.589
		c0,0.221-0.088,0.433-0.244,0.589C89.433,22.252,89.221,22.339,89,22.339z"/>
</g>
<g>
	<path fill="none" stroke="#FFFFFF" stroke-width="3" stroke-linecap="round" stroke-linejoin="round" d="M61.428,74.578l8,8l8-8"/>
</g>
<path fill-opacity="0.5" d="M114.347,24.662c0.064-0.528,0.112-1.056,0.112-1.6c0-0.544-0.048-1.072-0.112-1.6h2.704
	c0.128,0.512,0.208,1.048,0.208,1.6s-0.08,1.088-0.208,1.6 M112.931,29.11c0.48-0.888,0.848-1.848,1.104-2.848h2.36
	C115.62,27.596,114.39,28.607,112.931,29.11z M112.731,24.662h-3.744c-0.08-0.528-0.128-1.056-0.128-1.6
	c0-0.544,0.048-1.08,0.128-1.6h3.744c0.072,0.52,0.128,1.056,0.128,1.6C112.859,23.606,112.803,24.134,112.731,24.662z
	 M110.859,29.43c-0.664-0.96-1.2-2.024-1.528-3.168h3.056C112.059,27.406,111.523,28.47,110.859,29.43z M107.659,19.862h-2.336
	c0.767-1.338,1.996-2.351,3.456-2.848C108.299,17.902,107.939,18.862,107.659,19.862z M105.323,26.262h2.336
	c0.28,1,0.64,1.96,1.12,2.848C107.322,28.607,106.095,27.596,105.323,26.262z M104.667,24.662c-0.128-0.512-0.208-1.048-0.208-1.6
	s0.08-1.088,0.208-1.6h2.704c-0.064,0.528-0.112,1.056-0.112,1.6c0,0.544,0.048,1.072,0.112,1.6 M110.859,16.686
	c0.664,0.96,1.2,2.032,1.528,3.176h-3.056C109.659,18.718,110.195,17.646,110.859,16.686z M116.395,19.862h-2.36
	c-0.25-0.991-0.621-1.947-1.104-2.848C114.403,17.518,115.627,18.534,116.395,19.862z M110.859,15.062c-4.424,0-8,3.6-8,8
	c0,2.122,0.843,4.157,2.343,5.657c0.743,0.743,1.625,1.332,2.595,1.734c0.971,0.402,2.011,0.609,3.061,0.609
	c2.122,0,4.157-0.843,5.657-2.343c1.5-1.5,2.343-3.535,2.343-5.657c0-1.051-0.207-2.091-0.609-3.061
	c-0.402-0.971-0.991-1.853-1.734-2.595c-0.743-0.743-1.625-1.332-2.595-1.734C112.95,15.269,111.91,15.062,110.859,15.062z"/>
<g>
	<path fill="none" stroke="#000000" stroke-width="0.5" stroke-linecap="round" stroke-linejoin="round" d="M135.153,16.062
		l0.024,14"/>
	<path fill="none" stroke="#000000" stroke-width="0.5" stroke-linecap="round" stroke-linejoin="round" d="M128.167,23.143
		l13.999-0.162"/>
</g>
<defs>
	<filter id="Adobe_OpacityMaskFilter_1_" filterUnits="userSpaceOnUse" x="8.5" y="161.122" width="23.854" height="23.854">
		<feColorMatrix  type="matrix" values="1 0 0 0 0  0 1 0 0 0  0 0 1 0 0  0 0 0 1 0"/>
	</filter>
</defs>
<mask maskUnits="userSpaceOnUse" x="8.5" y="161.122" width="23.854" height="23.854" id="mask0_2489_1548_1_">
	<path fill="#FFFFFF" filter="url(#Adobe_OpacityMaskFilter_1_)" d="M8.5,161.122h23.854v23.854H8.5V161.122z"/>
</mask>
<g mask="url(#mask0_2489_1548_1_)">
	<path fill="#F79604" d="M32.354,173.049c0,6.587-5.34,11.927-11.927,11.927c-6.587,0-11.927-5.34-11.927-11.927
		c0-6.587,5.34-11.927,11.927-11.927C27.014,161.122,32.354,166.462,32.354,173.049z M20.855,169.927
		c-1.16,0.482-3.479,1.481-6.956,2.996c-0.565,0.225-0.861,0.444-0.888,0.659c-0.046,0.364,0.409,0.507,1.028,0.701
		c0.084,0.027,0.172,0.054,0.261,0.083c0.609,0.198,1.428,0.429,1.854,0.438c0.387,0.008,0.818-0.151,1.294-0.477
		c3.248-2.194,4.925-3.302,5.03-3.326c0.075-0.017,0.178-0.039,0.248,0.024c0.07,0.062,0.063,0.179,0.056,0.211
		c-0.046,0.192-1.829,1.851-2.753,2.709c-0.288,0.267-0.492,0.457-0.534,0.501c-0.094,0.096-0.189,0.189-0.28,0.277
		c-0.567,0.545-0.99,0.954,0.024,1.622c0.487,0.321,0.877,0.586,1.265,0.851c0.424,0.289,0.848,0.577,1.396,0.937
		c0.139,0.091,0.272,0.186,0.403,0.278c0.494,0.353,0.938,0.669,1.487,0.619c0.318-0.03,0.648-0.329,0.815-1.223
		c0.395-2.113,1.172-6.689,1.352-8.576c0.011-0.157,0.004-0.314-0.02-0.469c-0.015-0.125-0.076-0.241-0.171-0.323
		c-0.142-0.116-0.363-0.141-0.462-0.139C24.855,168.31,24.167,168.55,20.855,169.927z"/>
</g>
<path fill="#F79604" d="M55.481,173.049c0,0.988-0.393,1.937-1.092,2.636c-0.699,0.699-1.647,1.092-2.635,1.092
	s-1.937-0.393-2.636-1.092c-0.699-0.699-1.092-1.647-1.092-2.636c0-0.212,0.022-0.42,0.061-0.621h-1.303v4.966
	c0,0.345,0.28,0.625,0.625,0.625h8.691c0.166,0,0.324-0.066,0.441-0.183c0.117-0.117,0.183-0.276,0.183-0.442v-4.966H55.42
	C55.458,172.629,55.481,172.837,55.481,173.049z M51.753,175.534c0.326,0,0.65-0.064,0.951-0.189s0.575-0.308,0.806-0.539
	c0.231-0.231,0.414-0.505,0.539-0.806c0.125-0.302,0.189-0.625,0.189-0.951c0-0.326-0.064-0.65-0.189-0.951
	s-0.308-0.576-0.539-0.806c-0.231-0.231-0.505-0.414-0.807-0.539c-0.301-0.125-0.625-0.189-0.951-0.189
	c-0.659,0-1.291,0.262-1.757,0.728c-0.466,0.466-0.728,1.098-0.728,1.758c0,0.659,0.262,1.291,0.728,1.757
	C50.462,175.272,51.094,175.534,51.753,175.534z M54.735,170.44h1.49c0.099,0,0.194-0.039,0.264-0.109
	c0.07-0.07,0.11-0.165,0.11-0.264v-1.49c0-0.099-0.039-0.194-0.109-0.264c-0.07-0.07-0.165-0.11-0.265-0.11h-1.49
	c-0.099,0-0.194,0.039-0.264,0.11c-0.07,0.07-0.11,0.165-0.11,0.264v1.49C54.362,170.272,54.53,170.44,54.735,170.44z
	 M51.753,161.122c-3.163,0-6.197,1.257-8.434,3.493c-2.237,2.237-3.493,5.27-3.493,8.434c0,3.163,1.257,6.197,3.493,8.434
	c2.237,2.237,5.27,3.493,8.434,3.493c1.566,0,3.117-0.309,4.564-0.908c1.447-0.599,2.762-1.478,3.869-2.585
	c1.108-1.108,1.986-2.422,2.585-3.87c0.599-1.447,0.908-2.998,0.908-4.564s-0.308-3.117-0.908-4.564
	c-0.599-1.447-1.478-2.762-2.585-3.869c-1.108-1.108-2.422-1.986-3.869-2.585C54.871,161.431,53.32,161.122,51.753,161.122z
	 M57.965,177.881c0,0.759-0.621,1.38-1.38,1.38h-9.663c-0.759,0-1.38-0.621-1.38-1.38v-9.663c0-0.759,0.621-1.38,1.38-1.38h9.663
	c0.759,0,1.38,0.621,1.38,1.38V177.881z"/>
<path fill="#F79604" d="M95.007,173.079c0-6.584-5.343-11.927-11.927-11.927c-6.584,0-11.927,5.343-11.927,11.927
	c0,5.773,4.103,10.579,9.542,11.689v-8.11h-2.385v-3.578h2.385v-2.982c0-2.302,1.873-4.174,4.174-4.174h2.982v3.578h-2.385
	c-0.656,0-1.193,0.537-1.193,1.193v2.385h3.578v3.578h-3.578v8.289C90.295,184.35,95.007,179.269,95.007,173.079z"/>
<g>
	<path d="M254.898,40.786v22.535c0,0.049,0.015,0.097,0.042,0.137c0.027,0.041,0.066,0.072,0.111,0.091
		c0.045,0.019,0.095,0.024,0.143,0.014c0.048-0.009,0.092-0.033,0.127-0.067l11.734-11.443L255.321,40.61
		c-0.035-0.034-0.079-0.058-0.127-0.067c-0.048-0.009-0.098-0.004-0.143,0.015c-0.045,0.019-0.084,0.05-0.111,0.091
		C254.913,40.689,254.898,40.737,254.898,40.786z M271.974,47.352l-14.713-8.106l-0.009-0.005c-0.253-0.138-0.494,0.205-0.287,0.405
		l11.533,11.028L271.974,47.352z M256.967,64.462c-0.209,0.2,0.032,0.542,0.287,0.405l0.009-0.005l14.712-8.106l-3.476-3.323
		L256.967,64.462z M277.914,50.62l-4.108-2.263l-3.863,3.696l3.863,3.695l4.108-2.261C279.032,52.87,279.032,51.238,277.914,50.62z"
		/>
</g>
<path d="M304.994,63.604c-1.217,1.18-2.547,0.994-3.826,0.435c-1.354-0.571-2.596-0.596-4.025,0
	c-1.789,0.77-2.733,0.547-3.801-0.435c-6.062-6.248-5.168-15.764,1.714-16.112c1.677,0.087,2.845,0.919,3.826,0.994
	c1.466-0.298,2.87-1.155,4.435-1.043c1.876,0.149,3.292,0.894,4.224,2.236c-3.876,2.323-2.957,7.429,0.596,8.857
	c-0.708,1.863-1.627,3.714-3.155,5.081L304.994,63.604z M298.758,47.418c-0.186-2.77,2.062-5.056,4.646-5.28
	C303.764,45.343,300.497,47.728,298.758,47.418z"/>
</svg>
